<svg xmlns="http://www.w3.org/2000/svg" xmlns:xlink="http://www.w3.org/1999/xlink" id="Layer_1" x="0px" y="0px" viewBox="0 0 450 450" style="enable-background:new 0 0 450 450;" xml:space="preserve"><style type="text/css">	.st0{clip-path:url(#SVGID_2_);fill:#FFFFFF;}	.st1{clip-path:url(#SVGID_2_);fill:#414042;}	.st2{clip-path:url(#SVGID_2_);}	.st3{clip-path:url(#SVGID_2_);fill:#FED700;}	.st4{clip-path:url(#SVGID_2_);fill:#B19130;}	.st5{clip-path:url(#SVGID_2_);fill:#F1F2F2;}	.st6{clip-path:url(#SVGID_2_);fill:#DEC008;}	.st7{clip-path:url(#SVGID_4_);}	.st8{clip-path:url(#SVGID_6_);}	.st9{clip-path:url(#SVGID_6_);fill:#FFFEFF;}</style><g>	<defs>		<rect id="SVGID_1_" width="450" height="450"></rect>	</defs>	<clipPath id="SVGID_2_">		<use xlink:href="#SVGID_1_" style="overflow:visible;"></use>	</clipPath>	<path class="st0" d="M79.42,342.95l4.09,2.74c1.29,0.86,2.2,1.62,2.73,2.27c0.53,0.65,0.8,1.41,0.79,2.3  c0,0.89-0.46,2.01-1.37,3.37c-0.62,0.92-1.19,1.47-1.72,1.64c-0.53,0.17-1.29,0.07-2.27-0.31c0.8,0.85,1.21,1.63,1.21,2.36  c0.01,0.72-0.34,1.6-1.02,2.62l-0.98,1.46c-0.71,1.07-1.36,1.77-1.95,2.12c-0.59,0.35-1.21,0.44-1.87,0.27  c-0.66-0.17-1.81-0.8-3.46-1.91l-4.74-3.17L79.42,342.95z M77.73,354.35l-2.95,4.41c0.59,0.37,1.02,0.52,1.29,0.47  c0.27-0.06,0.61-0.4,1.04-1.04l0.99-1.47c0.45-0.67,0.65-1.13,0.61-1.37C78.65,355.11,78.33,354.78,77.73,354.35 M81.72,348.39  l-2.35,3.51c0.18,0.11,0.32,0.2,0.42,0.26c0.4,0.27,0.72,0.34,0.97,0.22c0.24-0.12,0.68-0.65,1.3-1.59  c0.33-0.49,0.52-0.87,0.56-1.13c0.04-0.26,0.01-0.46-0.1-0.61C82.4,348.9,82.14,348.68,81.72,348.39"></path>	<path class="st0" d="M97.44,354.47l-7.39,17.7l-4.32-2.61l1.54-3.05l-1.51-0.91l-2.02,2.76l-4.37-2.64l11.96-14.94L97.44,354.47z   M88.89,363.56c0.9-1.97,2.05-4.37,3.47-7.21c-2.31,2.85-3.95,4.96-4.93,6.33L88.89,363.56z"></path>	<path class="st0" d="M106.72,366.18l-4.03-2.19l0.67-1.23c0.31-0.58,0.46-0.97,0.44-1.18c-0.02-0.21-0.15-0.39-0.39-0.52  c-0.26-0.14-0.52-0.14-0.76,0c-0.25,0.14-0.49,0.43-0.73,0.86c-0.3,0.56-0.46,1.02-0.46,1.38c-0.01,0.36,0.21,0.92,0.67,1.68  c1.31,2.19,2.01,3.79,2.11,4.8c0.1,1.01-0.29,2.33-1.18,3.96c-0.65,1.19-1.26,1.99-1.84,2.4c-0.58,0.41-1.38,0.59-2.38,0.54  c-1-0.05-2.03-0.36-3.09-0.94c-1.16-0.63-2.03-1.39-2.61-2.27c-0.58-0.89-0.81-1.74-0.7-2.55c0.12-0.82,0.51-1.85,1.19-3.1  l0.59-1.09l4.03,2.19l-1.1,2.03c-0.34,0.63-0.5,1.06-0.49,1.3c0.02,0.24,0.17,0.44,0.46,0.6c0.29,0.16,0.56,0.16,0.83,0.01  c0.26-0.15,0.52-0.45,0.76-0.89c0.53-0.98,0.75-1.7,0.64-2.14c-0.11-0.45-0.51-1.32-1.21-2.62c-0.69-1.3-1.12-2.2-1.3-2.72  c-0.18-0.51-0.22-1.12-0.14-1.81c0.08-0.69,0.36-1.48,0.84-2.37c0.69-1.28,1.36-2.12,2.01-2.53c0.65-0.41,1.43-0.59,2.33-0.52  c0.91,0.06,1.88,0.37,2.91,0.93c1.13,0.61,1.99,1.31,2.58,2.11c0.6,0.8,0.87,1.54,0.83,2.23c-0.04,0.69-0.43,1.7-1.15,3.02  L106.72,366.18z"></path>	<polygon class="st0" points="110.89,361.85 118.27,365.48 116.6,368.89 113.64,367.43 112.06,370.66 114.82,372.02 113.23,375.26   110.47,373.9 108.63,377.64 111.88,379.24 110.2,382.65 102.53,378.87  "></polygon>	<path class="st0" d="M119.54,366.1l4.51,1.98c1.42,0.63,2.45,1.21,3.09,1.75c0.64,0.54,1.03,1.25,1.18,2.13  c0.15,0.87-0.1,2.06-0.76,3.56c-0.45,1.01-0.92,1.65-1.41,1.91c-0.49,0.26-1.26,0.29-2.29,0.09c0.94,0.7,1.48,1.4,1.61,2.11  c0.13,0.71-0.05,1.63-0.55,2.76l-0.71,1.61c-0.52,1.17-1.03,1.98-1.55,2.43c-0.52,0.45-1.11,0.65-1.79,0.6  c-0.68-0.05-1.92-0.48-3.74-1.27l-5.22-2.29L119.54,366.1z M119.86,377.62l-2.14,4.86c0.65,0.26,1.1,0.34,1.35,0.23  c0.25-0.1,0.54-0.5,0.84-1.2l0.71-1.62c0.33-0.74,0.45-1.23,0.36-1.45C120.9,378.21,120.53,377.94,119.86,377.62 M122.75,371.06  l-1.7,3.86c0.2,0.08,0.35,0.14,0.46,0.19c0.44,0.2,0.77,0.21,0.99,0.05c0.22-0.17,0.55-0.76,1.01-1.79  c0.24-0.54,0.36-0.95,0.35-1.21c0-0.26-0.07-0.46-0.21-0.58C123.51,371.44,123.21,371.27,122.75,371.06"></path>	<path class="st0" d="M139.29,374.29l-4.18,18.72l-4.7-1.81l0.98-3.28l-1.65-0.63l-1.5,3.08l-4.76-1.83l9.16-16.8L139.29,374.29z   M132.47,384.73c0.54-2.1,1.26-4.66,2.16-7.71c-1.77,3.21-3.02,5.58-3.74,7.1L132.47,384.73z"></path>	<polygon class="st0" points="147.08,377.02 142.2,391.38 145.04,392.35 143.82,395.94 136.31,393.38 142.41,375.43  "></polygon>	<polygon class="st0" points="155.53,379.68 151.13,394.2 154,395.07 152.9,398.7 145.31,396.4 150.81,378.25  "></polygon>	<path class="st0" d="M172.57,396.25l-0.75,3.11l-1.48,0.51l0.87,3.46l-4.26-1.03l-0.31-1.16c-1.65,0.6-3.12,0.74-4.39,0.44  c-1.34-0.32-2.26-1.01-2.77-2.08c-0.51-1.06-0.61-2.22-0.31-3.47c0.24-1,0.64-1.74,1.21-2.2c0.56-0.47,1.31-0.78,2.25-0.93  c-1.01-1.17-1.33-2.49-0.97-3.98c0.31-1.28,0.99-2.21,2.04-2.79c1.05-0.57,2.34-0.68,3.86-0.31c1.37,0.33,2.35,0.97,2.95,1.93  c0.6,0.96,0.76,2.03,0.48,3.21c-0.3,1.24-1.04,2.24-2.23,2.97l0.92,3.33L172.57,396.25z M165.57,398.69l-0.89-2.85  c-0.69,0.38-1.11,0.87-1.26,1.47c-0.1,0.43-0.09,0.78,0.03,1.04c0.13,0.26,0.36,0.43,0.71,0.51  C164.54,398.96,165.01,398.9,165.57,398.69 M166.25,391.32c0.68-0.55,1.09-1.14,1.24-1.76c0.07-0.27,0.05-0.53-0.05-0.79  c-0.1-0.26-0.28-0.42-0.56-0.48c-0.25-0.06-0.46-0.02-0.63,0.11c-0.17,0.14-0.3,0.38-0.38,0.72  C165.7,389.84,165.83,390.57,166.25,391.32"></path>	<path class="st0" d="M189.57,393.24l-4.51-0.79l0.24-1.38c0.11-0.65,0.13-1.07,0.04-1.27c-0.09-0.2-0.26-0.32-0.53-0.37  c-0.29-0.05-0.54,0.03-0.73,0.24c-0.19,0.21-0.33,0.56-0.41,1.05c-0.11,0.62-0.1,1.11,0.01,1.45c0.11,0.34,0.5,0.8,1.18,1.38  c1.94,1.66,3.12,2.95,3.54,3.87c0.42,0.92,0.47,2.3,0.15,4.13c-0.23,1.33-0.56,2.29-0.98,2.86c-0.42,0.58-1.12,1-2.08,1.27  c-0.97,0.27-2.04,0.3-3.23,0.1c-1.3-0.23-2.37-0.67-3.2-1.32s-1.33-1.38-1.48-2.2c-0.15-0.81-0.11-1.92,0.14-3.32l0.21-1.22  l4.51,0.78l-0.4,2.27c-0.12,0.7-0.14,1.16-0.04,1.38c0.09,0.22,0.3,0.36,0.62,0.42c0.32,0.06,0.59-0.03,0.79-0.26  c0.2-0.23,0.35-0.59,0.43-1.09c0.19-1.1,0.17-1.85-0.07-2.24c-0.25-0.39-0.91-1.09-1.98-2.09c-1.07-1.01-1.77-1.73-2.1-2.16  c-0.33-0.43-0.57-0.99-0.71-1.67c-0.15-0.68-0.13-1.52,0.04-2.51c0.25-1.43,0.61-2.45,1.09-3.04c0.48-0.6,1.16-1.01,2.04-1.24  c0.88-0.23,1.9-0.25,3.05-0.05c1.26,0.22,2.3,0.61,3.12,1.17c0.82,0.56,1.32,1.18,1.5,1.85c0.18,0.67,0.14,1.75-0.12,3.23  L189.57,393.24z"></path>	<path class="st0" d="M201.91,400.25c-0.24,1.89-0.45,3.22-0.64,4c-0.19,0.77-0.56,1.46-1.11,2.05c-0.55,0.59-1.25,1.01-2.09,1.26  c-0.84,0.25-1.79,0.31-2.85,0.17c-1.01-0.13-1.89-0.4-2.65-0.83c-0.76-0.43-1.34-1.01-1.75-1.73c-0.4-0.72-0.6-1.47-0.6-2.26  c0.01-0.79,0.13-2.15,0.37-4.09l0.4-3.22c0.24-1.89,0.45-3.22,0.64-4c0.19-0.77,0.56-1.46,1.11-2.05c0.55-0.59,1.25-1.01,2.09-1.26  c0.84-0.25,1.79-0.31,2.86-0.17c1.01,0.13,1.89,0.4,2.65,0.84c0.76,0.43,1.34,1.01,1.75,1.73s0.61,1.47,0.6,2.26  c0,0.79-0.13,2.15-0.37,4.09L201.91,400.25z M197.79,393.45c0.11-0.88,0.13-1.44,0.07-1.7c-0.07-0.26-0.25-0.4-0.55-0.44  c-0.25-0.03-0.46,0.04-0.62,0.22c-0.16,0.18-0.3,0.76-0.42,1.72l-1.11,8.79c-0.14,1.09-0.18,1.77-0.12,2.04  c0.06,0.27,0.25,0.42,0.57,0.46c0.33,0.04,0.57-0.08,0.69-0.36c0.13-0.28,0.26-0.98,0.4-2.09L197.79,393.45z"></path>	<polygon class="st0" points="204.78,389.35 213.11,390.04 212.79,393.83 209.38,393.54 209.08,397.13 212.12,397.38 211.81,400.98   208.78,400.72 208.11,408.66 203.2,408.25  "></polygon>	<polygon class="st0" points="223.92,390.56 223.74,394.35 220.82,394.22 220.11,409.38 215.19,409.15 215.89,393.99 212.97,393.85   213.15,390.06  "></polygon>	<path class="st0" d="M224.65,390.56l4.92,0.03c1.55,0.01,2.73,0.14,3.53,0.39c0.8,0.25,1.44,0.74,1.93,1.48  c0.49,0.74,0.72,1.93,0.71,3.57c-0.01,1.11-0.19,1.88-0.54,2.31c-0.35,0.44-1.04,0.77-2.06,0.99c1.14,0.27,1.91,0.7,2.31,1.3  c0.4,0.6,0.6,1.52,0.59,2.75l-0.01,1.76c-0.01,1.28-0.16,2.23-0.46,2.85c-0.3,0.62-0.77,1.03-1.41,1.26  c-0.64,0.22-1.96,0.33-3.94,0.31l-5.71-0.04L224.65,390.56z M229.51,401.01l-0.03,5.31c0.7-0.02,1.14-0.13,1.33-0.32  c0.19-0.19,0.29-0.67,0.3-1.44l0.01-1.77c0.01-0.81-0.08-1.3-0.25-1.48C230.7,401.14,230.25,401.04,229.51,401.01 M229.56,393.84  l-0.03,4.22c0.21-0.01,0.38-0.01,0.49-0.01c0.48,0,0.79-0.11,0.93-0.35c0.13-0.24,0.2-0.92,0.21-2.04c0-0.59-0.05-1.01-0.16-1.25  c-0.11-0.24-0.25-0.39-0.43-0.45C230.41,393.89,230.07,393.85,229.56,393.84"></path>	<path class="st0" d="M245.94,390.21l3.63,18.83l-5.04,0.21l-0.41-3.39l-1.76,0.07l-0.15,3.42l-5.1,0.22l1.71-19.06L245.94,390.21z   M243.85,402.51c-0.34-2.14-0.71-4.78-1.09-7.93c-0.35,3.65-0.55,6.32-0.61,8L243.85,402.51z"></path>	<polygon class="st0" points="254.19,389.61 255.43,404.73 258.42,404.48 258.72,408.27 250.82,408.91 249.28,390.01  "></polygon>	<polygon class="st0" points="262.99,388.69 264.73,403.77 267.71,403.42 268.14,407.19 260.26,408.1 258.09,389.26  "></polygon>	<path class="st0" d="M279.31,386.23l5.98,18.22l-4.97,0.85l-0.84-3.32l-1.74,0.3l0.28,3.41l-5.03,0.86l-0.72-19.12L279.31,386.23z   M278.79,398.69c-0.61-2.08-1.3-4.65-2.08-7.73c0.12,3.66,0.25,6.33,0.41,8.01L278.79,398.69z"></path>	<path class="st0" d="M293.97,389.03l-4.48,0.98l-0.3-1.37c-0.14-0.64-0.29-1.04-0.44-1.19c-0.15-0.15-0.36-0.2-0.63-0.14  c-0.29,0.06-0.48,0.23-0.58,0.5c-0.1,0.27-0.09,0.64,0.01,1.13c0.14,0.62,0.32,1.07,0.56,1.34c0.23,0.28,0.76,0.56,1.61,0.84  c2.42,0.8,4,1.56,4.74,2.25c0.74,0.7,1.3,1.95,1.7,3.77c0.29,1.32,0.35,2.33,0.17,3.02c-0.17,0.69-0.66,1.35-1.45,1.96  c-0.79,0.62-1.78,1.05-2.95,1.31c-1.29,0.28-2.44,0.28-3.46-0.01c-1.02-0.29-1.75-0.78-2.2-1.48c-0.45-0.69-0.82-1.73-1.13-3.12  l-0.26-1.21l4.48-0.98l0.49,2.25c0.15,0.69,0.31,1.13,0.48,1.3c0.17,0.17,0.41,0.22,0.73,0.15c0.32-0.07,0.53-0.25,0.63-0.53  c0.1-0.29,0.1-0.68-0.01-1.17c-0.24-1.09-0.54-1.77-0.91-2.04c-0.38-0.27-1.25-0.67-2.62-1.19c-1.37-0.53-2.29-0.94-2.76-1.21  c-0.47-0.27-0.9-0.7-1.29-1.28c-0.39-0.58-0.7-1.36-0.91-2.34c-0.31-1.42-0.35-2.5-0.14-3.23c0.22-0.73,0.69-1.38,1.42-1.92  s1.67-0.95,2.81-1.19c1.25-0.27,2.36-0.3,3.33-0.09c0.97,0.21,1.66,0.59,2.08,1.15c0.42,0.55,0.79,1.57,1.11,3.04L293.97,389.03z"></path>	<path class="st0" d="M305.87,385.9l-4.43,1.18l-0.36-1.36c-0.17-0.63-0.33-1.02-0.49-1.17c-0.16-0.14-0.37-0.18-0.64-0.11  c-0.29,0.08-0.47,0.25-0.56,0.52c-0.08,0.27-0.06,0.65,0.06,1.12c0.16,0.61,0.37,1.05,0.62,1.32c0.24,0.27,0.79,0.52,1.64,0.76  c2.46,0.69,4.07,1.37,4.83,2.03c0.77,0.66,1.39,1.89,1.87,3.69c0.35,1.3,0.45,2.31,0.31,3.01c-0.14,0.7-0.59,1.38-1.36,2.03  c-0.76,0.65-1.73,1.13-2.89,1.44c-1.27,0.34-2.43,0.39-3.46,0.15c-1.03-0.24-1.79-0.7-2.26-1.37c-0.48-0.67-0.9-1.69-1.27-3.07  l-0.32-1.2l4.43-1.18l0.59,2.23c0.18,0.69,0.36,1.11,0.54,1.27c0.18,0.16,0.42,0.2,0.74,0.12c0.32-0.08,0.52-0.27,0.61-0.56  c0.09-0.29,0.07-0.68-0.06-1.17c-0.29-1.08-0.62-1.74-1.01-2c-0.39-0.25-1.28-0.61-2.67-1.07c-1.39-0.47-2.33-0.83-2.81-1.08  c-0.48-0.25-0.93-0.66-1.35-1.22c-0.42-0.56-0.76-1.32-1.02-2.3c-0.37-1.4-0.47-2.48-0.28-3.22c0.18-0.74,0.63-1.41,1.33-1.99  c0.7-0.58,1.62-1.02,2.75-1.32c1.24-0.33,2.35-0.41,3.32-0.24c0.98,0.17,1.69,0.52,2.14,1.05c0.45,0.53,0.86,1.53,1.25,2.98  L305.87,385.9z"></path>	<path class="st0" d="M320,387.1c0.58,1.82,0.94,3.12,1.1,3.9c0.15,0.78,0.11,1.56-0.15,2.33c-0.25,0.77-0.71,1.44-1.37,2.02  c-0.66,0.58-1.5,1.03-2.52,1.35c-0.97,0.31-1.89,0.43-2.76,0.35s-1.64-0.35-2.31-0.83c-0.67-0.48-1.17-1.08-1.49-1.8  s-0.78-2-1.38-3.87l-0.98-3.09c-0.58-1.82-0.94-3.12-1.1-3.9c-0.15-0.78-0.11-1.56,0.14-2.33c0.25-0.77,0.71-1.44,1.37-2.02  c0.66-0.58,1.5-1.03,2.52-1.35c0.97-0.31,1.89-0.43,2.76-0.35c0.87,0.07,1.64,0.35,2.31,0.83c0.67,0.48,1.17,1.08,1.49,1.8  c0.33,0.72,0.78,2.01,1.38,3.86L320,387.1z M313.41,382.65c-0.27-0.84-0.48-1.36-0.65-1.57c-0.17-0.21-0.4-0.26-0.69-0.17  c-0.24,0.08-0.4,0.23-0.47,0.46c-0.07,0.23,0.04,0.81,0.34,1.74l2.68,8.44c0.33,1.05,0.58,1.68,0.74,1.9  c0.16,0.22,0.4,0.28,0.72,0.18c0.32-0.1,0.48-0.31,0.48-0.62c0-0.31-0.17-1-0.51-2.06L313.41,382.65z"></path>	<path class="st0" d="M331.67,379.76l-4.62,1.72l-1.15-3.09c-0.33-0.9-0.59-1.44-0.77-1.63c-0.18-0.19-0.44-0.22-0.78-0.09  c-0.38,0.14-0.57,0.37-0.57,0.68c0,0.31,0.17,0.91,0.5,1.81l3.07,8.26c0.32,0.86,0.58,1.41,0.78,1.63c0.2,0.23,0.48,0.27,0.84,0.14  c0.35-0.13,0.52-0.34,0.53-0.65c0.01-0.3-0.17-0.94-0.53-1.92l-0.83-2.23l4.62-1.72l0.26,0.69c0.68,1.84,1.04,3.19,1.07,4.06  c0.03,0.87-0.3,1.75-0.97,2.66c-0.67,0.91-1.66,1.61-2.96,2.09c-1.35,0.51-2.56,0.67-3.62,0.51c-1.06-0.16-1.9-0.63-2.5-1.39  c-0.61-0.76-1.24-2.01-1.89-3.76l-1.93-5.19c-0.48-1.28-0.79-2.26-0.94-2.93c-0.15-0.67-0.12-1.39,0.1-2.14  c0.21-0.75,0.65-1.45,1.29-2.07c0.65-0.63,1.47-1.13,2.47-1.5c1.36-0.51,2.58-0.66,3.67-0.46c1.08,0.2,1.91,0.64,2.48,1.32  c0.57,0.68,1.16,1.85,1.78,3.51L331.67,379.76z"></path>			<rect x="333.57" y="369.76" transform="matrix(0.9235 -0.3835 0.3835 0.9235 -119.7528 157.8824)" class="st0" width="4.93" height="18.97"></rect>	<path class="st0" d="M344,365.36l10.45,16.08l-4.58,2.1l-1.66-2.99l-1.61,0.73l1.15,3.22l-4.64,2.12l-5.6-18.3L344,365.36z   M346.69,377.54c-1.12-1.85-2.45-4.16-4-6.93c1.05,3.51,1.87,6.06,2.45,7.64L346.69,377.54z"></path>	<polygon class="st0" points="354.71,360.03 356.42,363.42 353.8,364.74 360.63,378.29 356.22,380.51 349.4,366.96 346.79,368.27   345.08,364.88  "></polygon>			<rect x="359.68" y="357.25" transform="matrix(0.8777 -0.4793 0.4793 0.8777 -131.4654 218.4427)" class="st0" width="4.93" height="18.97"></rect>	<path class="st0" d="M376.63,360.23c0.98,1.64,1.63,2.82,1.95,3.55c0.33,0.73,0.46,1.49,0.39,2.3c-0.07,0.81-0.36,1.56-0.87,2.28  c-0.51,0.71-1.23,1.34-2.15,1.89c-0.87,0.52-1.74,0.84-2.61,0.97c-0.86,0.13-1.68,0.03-2.44-0.29c-0.76-0.32-1.38-0.79-1.86-1.41  c-0.48-0.62-1.22-1.77-2.22-3.45l-1.66-2.79c-0.98-1.64-1.63-2.82-1.96-3.55c-0.33-0.73-0.46-1.49-0.38-2.3  c0.07-0.8,0.36-1.56,0.87-2.28c0.51-0.71,1.23-1.34,2.15-1.89c0.87-0.52,1.74-0.84,2.61-0.97c0.87-0.13,1.68-0.03,2.44,0.29  c0.76,0.32,1.38,0.79,1.86,1.41c0.48,0.62,1.22,1.77,2.22,3.45L376.63,360.23z M369.2,357.39c-0.45-0.76-0.78-1.22-0.99-1.38  c-0.21-0.16-0.45-0.16-0.71-0.01c-0.22,0.13-0.34,0.32-0.36,0.56c-0.02,0.24,0.23,0.78,0.73,1.62l4.53,7.61  c0.56,0.95,0.95,1.51,1.16,1.68c0.21,0.18,0.45,0.18,0.74,0.01c0.29-0.17,0.4-0.41,0.33-0.71c-0.07-0.3-0.39-0.93-0.96-1.89  L369.2,357.39z"></path>	<polygon class="st0" points="381.35,343.83 391.82,359.65 388.21,362.04 381.31,356.26 386.07,363.46 382.63,365.73 372.17,349.91   375.61,347.64 382.62,353.23 377.91,346.11  "></polygon>	<path class="st1" d="M167.44,289.74l208.05-120.54c9.45-5.18,13.93-16.5,9.39-23.74c-3.79-6.05-12.56-6.99-20.25-2.18  L161.48,270.46C161.48,270.46,169.57,279.96,167.44,289.74"></path>	<path class="st2" d="M164.12,294.29l1.1-5.05c1.87-8.57-5.4-17.22-5.48-17.31l-1.71-2.01l205.4-128.59  c8.84-5.53,18.89-4.29,23.39,2.9c2.15,3.43,2.69,7.8,1.52,12.28c-1.57,6-5.96,11.49-11.76,14.67L164.12,294.29z M164.78,271.08  c1.95,2.86,5.05,8.32,5.29,14.5l204.28-118.36c4.76-2.61,8.33-7.03,9.58-11.85c0.85-3.26,0.5-6.35-0.98-8.71  c-3.12-4.98-10.48-5.61-17.11-1.46L164.78,271.08z"></path>	<path class="st0" d="M171.33,271.54c15.06-12.36,31.13-23.23,48.01-32.85c12.85-6.82,26.06-13.01,38.1-21.25  c6.88-4.54,14.08-9.87,20.82-14.67c12.95-8.94,26.13-17.59,39.56-25.79c16.7-9.89,33.7-19.33,51.4-27.35c0,0,0.4,0.65,0.4,0.65  c-27.47,22.01-57.52,40.51-88.38,57.34c-11.75,6.14-23.8,12.26-34.86,19.57c-8.13,5.27-15.73,11.39-23.72,16.89  c-7.99,5.49-16.4,10.32-24.85,15.06c-8.48,4.69-17.09,9.19-26.09,13.04L171.33,271.54z"></path>	<path class="st3" d="M230.84,141.36c0,0-6.17-7.38-17.01-3.37c-10.84,4.01-0.34,15.51,3.16,15.68  C220.48,153.83,231.86,152.06,230.84,141.36"></path>	<path class="st2" d="M217.45,155.95c-0.21,0-0.4,0-0.58-0.01c-3.5-0.17-9.19-5.75-10.01-11.02c-0.63-4.08,1.62-7.38,6.16-9.07  c12.21-4.52,19.26,3.7,19.55,4.05l0.45,0.54l0.07,0.7c0.38,3.95-0.71,7.4-3.16,9.96C226.26,154.97,220.47,155.95,217.45,155.95   M220.12,139.08c-1.63,0-3.47,0.29-5.5,1.05c-3.51,1.3-3.34,3.14-3.27,3.83c0.32,3.46,4.6,7.24,5.79,7.44  c1.52,0.07,6.63-0.4,9.52-3.43c1.39-1.46,2.04-3.31,1.97-5.62C227.52,141.32,224.62,139.08,220.12,139.08"></path>	<path class="st4" d="M287.86,135.6c0,0-12.58-0.06-16.62,1.97c-4.05,2.03,2.26,21.7,14.44,18.64  C285.67,156.21,291.86,145.82,287.86,135.6"></path>	<path class="st2" d="M283.16,158.81c-6.69,0-11.84-5.67-14.18-11.98c-1.54-4.15-2.14-9.6,1.23-11.29  c4.4-2.21,16.28-2.22,17.65-2.21l1.55,0.01l0.56,1.44c4.36,11.13-2.07,22.14-2.35,22.61l-0.49,0.81l-0.92,0.23  C285.17,158.68,284.15,158.81,283.16,158.81 M272.43,139.52c-0.51,1.15,0.13,5.96,3.18,10.17c1.74,2.4,4.59,5.02,8.56,4.49  c1.17-2.38,4.07-9.32,2.06-16.3C281.58,137.96,274.9,138.42,272.43,139.52"></path>	<path class="st4" d="M307.67,158.07c0,0-13.92-0.06-17.97,1.97c-4.04,2.03,2.26,21.7,14.44,18.64  C304.14,178.68,308.84,169.05,307.67,158.07"></path>	<path class="st2" d="M301.63,181.28c-6.69,0-11.84-5.67-14.18-11.98c-1.54-4.15-2.14-9.6,1.23-11.29c4.41-2.21,17.52-2.22,19-2.21  l2.04,0.01l0.22,2.03c1.23,11.5-3.54,21.44-3.75,21.85l-0.46,0.95l-1.03,0.26C303.64,181.16,302.62,181.28,301.63,181.28   M290.9,161.99c-0.51,1.15,0.14,5.96,3.18,10.17c1.72,2.38,4.54,4.98,8.46,4.51c1-2.43,3.31-8.94,3.02-16.31  C300.42,160.45,293.34,160.91,290.9,161.99"></path>	<path class="st4" d="M320.17,187.06c0,0-12.28-6.57-16.8-6.67c-4.53-0.1-8.16,20.24,4.04,23.23  C307.41,203.63,316.07,197.31,320.17,187.06"></path>	<path class="st2" d="M307.9,206.09l-1.03-0.25c-8.19-2.01-10.83-10.65-9.82-18.32c0.58-4.39,2.63-9.48,6.37-9.41  c4.93,0.11,16.52,6.24,17.83,6.94l1.8,0.96l-0.76,1.89c-4.3,10.74-13.16,17.29-13.54,17.56L307.9,206.09z M303.52,182.68  c-0.99,0.78-2.67,5.33-1.95,10.48c0.41,2.91,1.68,6.52,5.36,7.94c2.02-1.68,7.1-6.35,10.3-13  C312.66,185.77,306.18,182.87,303.52,182.68"></path>	<path class="st4" d="M320.7,215.18c0,0-9.6-10.08-13.87-11.59c-4.27-1.51-14.09,16.66-3.44,23.33  C303.39,226.92,313.59,223.64,320.7,215.18"></path>	<path class="st2" d="M303.08,229.41l-0.9-0.56c-7.14-4.48-6.95-13.51-3.59-20.47c1.93-3.99,5.44-8.2,9-6.94  c4.65,1.64,13.74,11.1,14.76,12.17l1.41,1.48l-1.31,1.56c-7.44,8.85-17.91,12.29-18.35,12.44L303.08,229.41z M306.25,205.8  c-1.18,0.43-4.21,4.23-5.13,9.34c-0.52,2.89-0.44,6.72,2.61,9.22c2.44-0.97,8.74-3.81,13.85-9.12  C313.96,211.6,308.72,206.82,306.25,205.8"></path>	<path class="st4" d="M317.28,240.95c0,0-9.6-10.08-13.87-11.59c-4.27-1.51-14.09,16.66-3.44,23.33  C299.97,252.69,310.18,249.41,317.28,240.95"></path>	<path class="st2" d="M299.66,255.18l-0.9-0.56c-7.15-4.48-6.95-13.51-3.59-20.47c1.93-3.99,5.44-8.19,9-6.93  c4.65,1.64,13.74,11.1,14.76,12.17l1.41,1.48l-1.31,1.56c-7.44,8.85-17.91,12.29-18.35,12.44L299.66,255.18z M302.84,231.58  c-1.18,0.43-4.21,4.23-5.13,9.34c-0.52,2.89-0.44,6.72,2.61,9.22c2.44-0.97,8.74-3.81,13.85-9.12  C310.55,237.38,305.31,232.59,302.84,231.58"></path>	<path class="st4" d="M318.43,264.12c0,0-11.66-7.6-16.16-8.09c-4.5-0.49-9.87,19.46,2.02,23.49  C304.29,279.52,313.46,273.98,318.43,264.12"></path>	<path class="st2" d="M304.56,282.02l-1-0.34c-7.98-2.71-9.87-11.54-8.2-19.1c0.96-4.32,3.42-9.23,7.16-8.82  c4.9,0.53,15.92,7.64,17.16,8.45l1.71,1.11l-0.92,1.82c-5.21,10.33-14.6,16.09-15,16.33L304.56,282.02z M302.22,258.32  c-1.05,0.69-3.12,5.08-2.84,10.27c0.16,2.93,1.12,6.64,4.66,8.37c2.15-1.5,7.63-5.72,11.38-12.06  C311.06,262.19,304.86,258.74,302.22,258.32"></path>	<path class="st3" d="M206,158.74c0,0-9.85-8.9-7.85-13.4s11-8.17,14.33-7.83c3.33,0.33,11.5,10.61,11.5,10.61s-8,2.34-3.5,10.11  C220.48,158.22,207.52,157.31,206,158.74"></path>	<path class="st2" d="M206.03,161.84l-1.56-1.41c-2.6-2.35-10.88-10.45-8.4-16.02c2.53-5.68,12.57-9.58,16.64-9.17  c1.29,0.13,5.15,1.5,13.06,11.46l2.11,2.65l-3.25,0.95c-0.64,0.2-2.47,1.04-3.04,2.49c-0.43,1.1-0.14,2.55,0.87,4.3l2.15,3.71  l-4.28-0.3c-5.15-0.36-11.44-0.41-12.94,0.07L206.03,161.84z M211.94,139.75c-2.78,0-10.24,3.2-11.71,6.51  c-0.7,1.57,2.61,6.25,6.3,9.86c1.67-0.38,4.73-0.64,10.5-0.38c-0.37-1.65-0.26-3.21,0.32-4.67c0.68-1.71,1.9-2.9,3.05-3.71  c-3.44-4.02-6.99-7.36-8.18-7.6C212.14,139.75,212.05,139.75,211.94,139.75"></path>	<path class="st3" d="M191.14,159.91c0,0,0.8-6.24,5.47-6.25c4.67-0.01,9.37,6.25,9.37,6.25S196.12,168.83,191.14,159.91"></path>	<path class="st2" d="M197.21,166.15c-0.49,0-0.99-0.04-1.48-0.12c-1.9-0.31-4.58-1.43-6.58-5.01l-0.37-0.66l0.1-0.75  c0.37-2.85,2.45-8.23,7.73-8.23h0.01c5.64,0,10.64,6.42,11.19,7.16l1.25,1.66l-1.54,1.4C206.96,162.11,202.32,166.15,197.21,166.15   M193.55,159.48c0.82,1.19,1.78,1.87,2.91,2.06c2.05,0.34,4.48-0.84,6.2-1.96c-1.61-1.65-4.02-3.63-6.05-3.63h0  C194.69,155.94,193.85,158.26,193.55,159.48"></path>	<path class="st3" d="M245.32,265.83c-3,1-41,7.33-51.33,19.83c0,0-17-10.17-7-37.33c0,0,2-4.67,4-5.5c0,0-3.67-10.5,1.33-17  c0,0-12.83-13.47-29.83-17.32c-17-3.85-33.5,0.32-37.83-5.18c-4.33-5.5-9.67-23.66-9.67-23.66s-3.85,0.62-5.86-2.01  c-0.44-0.58-0.43-1.39,0-1.98c1.48-2.04,5.24-7.06,8.03-9.34c0,0-0.44-3.33,2-7.78c2.44-4.44,20.44-17.33,24-17.33  c3.56,0,6.67,6.67,6.89,8.44c0,0,19.55-8.89,23.11-4.67c3.56,4.22,5.55,10.89,4.44,12.89c0,0,17.33,2.22,20,3.56  c0,0,12.33-5.56,22.89-3.22c0,0-5.33-5.11,8.22-15.33c13.55-10.22,30.89-13.22,36.66-10.67c5.78,2.56,15.28,17.28,16.28,23.78  c0,0,12.83,3.67,20.5,21.33c7.67,17.67,10.67,28.33,3.17,43.33c-7.5,15,2.16,101.93,0.92,108.09c0,0-113.94,30.97-120.48-13.75"></path>	<path class="st2" d="M234.52,341.5c-15.38,0-29.86-2.17-39.46-8.46c-6.58-4.31-10.47-10.27-11.56-17.71l4.51-0.66  c0.9,6.18,4.03,10.94,9.55,14.56c26.23,17.19,95.25,0.6,106.52-2.27c0.02-3.52-0.59-12.56-1.24-22.04  c-2.55-37.6-4.62-75.16,0.43-85.28c7.12-14.24,4.34-24-3.22-41.41c-7.15-16.49-18.92-20.02-19.04-20.05l-1.4-0.4l-0.22-1.44  c-0.88-5.7-9.96-19.83-14.95-22.04c-4.57-2.02-21.09,0.39-34.37,10.4c-6.85,5.17-8.16,8.57-8.33,10.14  c-0.11,1.04,0.23,1.6,0.35,1.76l7.61,6.09l-9.71-2.25c-9.68-2.14-21.35,3.02-21.46,3.08l-0.99,0.44l-0.97-0.48  c-1.43-0.72-11.12-2.29-19.27-3.33l-3.33-0.43l1.63-2.94c0.37-1.09-1.02-6.55-4.2-10.31c-1.25-1.28-10.45,0.74-20.43,5.27  l-2.82,1.28l-0.38-3.07c-0.2-1.49-2.96-6.45-4.63-6.45c-2.99,0.33-19.85,12.24-22,16.15c-2.01,3.65-1.75,6.29-1.74,6.41l0.13,1.23  l-0.96,0.81c-2.46,2-5.95,6.62-7.34,8.51c1.24,1.1,3.37,0.81,3.39,0.8l1.96-0.28l0.58,1.89c1.45,4.94,5.94,18.67,9.27,22.9  c1.72,2.18,7.67,2.27,14.57,2.38c6.29,0.09,14.13,0.21,21.98,1.99c17.47,3.95,30.43,17.4,30.98,17.97l1.35,1.41l-1.19,1.55  c-4.18,5.43-1.02,14.77-0.99,14.86l0.7,2.02l-1.97,0.83c-0.61,0.3-1.94,2.35-2.76,4.24c-7.5,20.44,0.99,30.34,4.61,33.44  c10.5-10.16,37.08-15.92,47.4-18.16c1.61-0.35,3.13-0.68,3.48-0.8l1.44,4.32c-0.56,0.19-1.62,0.42-3.96,0.93  c-9.43,2.04-38.12,8.26-46.34,18.2l-1.25,1.51l-1.68-1c-0.2-0.12-4.85-2.95-8.11-9.41c-5.33-10.55-2.86-22.5,0.15-30.67l0.04-0.11  c0.43-0.99,1.7-3.74,3.47-5.48c-0.81-3.14-2.06-10.17,1.03-15.79c-3.58-3.34-14.29-12.46-27.41-15.43  c-7.39-1.67-14.64-1.78-21.04-1.88c-8.39-0.13-15.01-0.23-18.08-4.11c-3.79-4.81-8.09-18.02-9.55-22.75c-1.96-0.13-4.4-0.86-6-2.96  c-1.04-1.36-1.06-3.29-0.04-4.7c1.72-2.38,4.85-6.5,7.57-9.01c0.04-1.59,0.44-4.45,2.31-7.86c1.92-3.49,9.86-9.36,12.25-11.08  c3.86-2.78,10.77-7.43,13.75-7.43c3.95,0,6.86,4.41,8.25,7.63c7.16-3.06,19.73-7.51,23.49-3.04c2.81,3.34,5.14,8.59,5.27,12.4  c4.94,0.66,13.78,1.95,17.37,3.07c2.71-1.1,11.16-4.16,19.64-3.54c-0.01-0.22,0-0.45,0.01-0.68c0.25-4.2,3.66-8.81,10.15-13.7  c13.47-10.16,31.68-14.15,38.96-10.93c4.34,1.92,9.07,8.49,10.9,11.23c2.53,3.78,5.39,8.95,6.42,12.92  c3.68,1.49,14,6.87,20.62,22.14c7.23,16.65,11.35,28.79,3.12,45.26c-4.93,9.85-1.82,55.6,0.04,82.93  c1.03,15.13,1.5,22.5,1.08,24.59l-0.28,1.38l-1.36,0.37C304.57,331.57,267.47,341.5,234.52,341.5"></path>	<path class="st2" d="M178.74,155.91c5.13,4.12,10.97,10.02,10.41,17.08c-0.79-5.77-5.93-9.46-10.64-12.13  c-0.68-0.36-1.42-0.75-2.05-1.01L178.74,155.91z"></path>	<path class="st2" d="M205.98,176.66c-0.29-2.96-1.43-5.82-3.18-8.16c-1.66-2.28-3.91-3.95-6.43-5.13l2.44-3.85  C203.91,163.54,207,170.19,205.98,176.66"></path>	<path class="st2" d="M222.98,176.66c-5.36-7.62-13.92-12.97-23.18-14.01l0.88-4.47C210.29,160.83,218.61,167.72,222.98,176.66"></path>	<path class="st2" d="M221.09,156.02c7.93,2.93,13.72,10.12,15.9,18.14c-2.36-4.77-6.05-8.94-10.69-11.5  c-1.97-1.15-4.23-1.82-6.41-2.24L221.09,156.02"></path>	<path class="st2" d="M281.25,158.24c-10.81-1.76-27.06,14.23-34.45,21.55c-3.39,3.45-6.68,7.01-9.81,10.7  c5.73-7.86,11.94-15.36,18.84-22.26c6.6-6.28,16.3-15.5,26.22-14.48C282.05,153.75,281.25,158.24,281.25,158.24"></path>	<path class="st5" d="M110.66,180.39c0,0,0.5,13.94,1.5,15.6c1,1.67,4.54-2.03,6.5-7.8C122.57,176.66,117.66,178.29,110.66,180.39"></path>	<path class="st2" d="M112.83,198.68c-1.09,0-2.05-0.55-2.63-1.51c-0.86-1.44-1.48-7.06-1.82-16.69l-0.06-1.76l1.97-0.59  c4.49-1.35,8.36-2.52,10.69-0.11c1.84,1.9,1.79,5.17-0.16,10.91c-1.51,4.46-4.55,9.4-7.63,9.73  C113.06,198.67,112.94,198.68,112.83,198.68 M113,182.07c0.18,3.99,0.47,8.21,0.78,10.74c0.85-1.13,1.89-2.94,2.71-5.35  c1.54-4.54,1.29-5.95,1.19-6.25C116.98,180.98,114.88,181.53,113,182.07"></path>	<path class="st2" d="M179.36,214.53c4.95-1.44,9.51-2.04,13.97-2.46c8.7-0.67,17.1-0.72,25.44,1.65c4.08,1.13,8.2,2.34,12.38,2.98  c4.07,0.64,8.51,1.23,12.6,1.63c12.8,1.43,25.85,1.56,38.63-0.14c1.06-0.16,1.62,1.37,0.6,1.88  c-17.16,8.84-36.95,12.15-56.17,12.55c-3.07,0.17-7.28,0.45-10.36,0.51c-11.68,0.2-22.97-4.49-32.24-11.49  c-1.91-1.53-3.77-3.16-5.46-5.23C178.21,215.77,178.55,214.73,179.36,214.53"></path>	<path class="st4" d="M196.99,330.87c0,0-29.02-5.87-14.16-32.92c0,0,9.62,2.67,13.51,7.19c0,0,44.78-17.97,49.94-19.5  c4.94-1.46,1.33,19.89-5.23,25.53c-0.48,0.42-1.07,0.7-1.68,0.88C234.26,313.61,210.3,313.97,196.99,330.87"></path>	<path class="st2" d="M197.92,333.38l-1.37-0.28c-0.56-0.11-13.73-2.89-18.53-13.24c-2.98-6.43-2.04-14.17,2.82-23.02l0.87-1.58  l1.74,0.48c0.39,0.11,8.76,2.47,13.46,6.71c7.77-3.11,44-17.6,48.74-19c1.76-0.52,3.41,0.2,4.32,1.86  c1.96,3.6,0.21,11.39-0.37,13.68c-0.76,3.01-2.98,10.39-7.06,13.89c-0.68,0.59-1.52,1.04-2.49,1.33c-1.1,0.34-2.7,0.58-4.91,0.93  c-9.11,1.42-26.06,4.05-36.34,17.12L197.92,333.38z M183.97,300.69c-3.37,6.78-3.99,12.57-1.83,17.24  c3.04,6.59,10.9,9.46,14.02,10.37c11.47-13.48,29.49-16.28,38.27-17.64c1.87-0.29,3.49-0.54,4.28-0.78  c0.37-0.11,0.65-0.26,0.86-0.43c4.72-4.05,7.58-17.72,6.62-21.38c-6.1,2.08-34.27,13.28-48.99,19.19l-1.51,0.61l-1.06-1.23  C192.31,303.94,187.13,301.77,183.97,300.69"></path>	<path class="st4" d="M192.32,225.83c0,0,5.46,2.86,21.28,2.87c10.35,0,25.13-1.21,45.72-5.26c0,0,9.83-2.44,6.95,5.26  c-2.93,7.8-2.67,9.63-10.67,12.3c-8,2.67-47.78,13.58-52.44,11.13c-4.67-2.46-10.55-7.68-12.17-9.29  C189.37,241.22,187.49,231.55,192.32,225.83"></path>	<path class="st2" d="M205.55,254.68c-1.56,0-2.74-0.17-3.46-0.54c-5.24-2.76-11.46-8.44-12.71-9.7c-2.48-2.48-4.33-13.54,1.2-20.08  l1.18-1.4l1.6,0.84c0.19,0.09,5.62,2.61,20.24,2.62h0.05c12.38,0,27.58-1.75,45.18-5.2c1.18-0.29,6.43-1.35,9,1.53  c1,1.12,1.9,3.2,0.57,6.75c-0.33,0.89-0.62,1.7-0.89,2.44c-2.33,6.46-3.43,8.63-11.19,11.22  C255.9,243.29,218.36,254.68,205.55,254.68 M193.15,228.58c-2.74,4.7-1.42,11.51-0.52,12.68c1.52,1.51,7.17,6.52,11.58,8.84  c4.11,1.5,39.05-7.4,50.66-11.27c6.03-2.01,6.34-2.87,8.34-8.44c0.27-0.76,0.57-1.59,0.91-2.5c0.53-1.41,0.39-2.02,0.3-2.12  c-0.49-0.55-2.92-0.53-4.56-0.13l-0.11,0.02c-17.91,3.52-33.42,5.3-46.11,5.3h-0.05C202.29,230.97,196,229.51,193.15,228.58"></path>	<path class="st4" d="M194.37,308.08c0,0-23.32-8.1-8.46-35.15c0,0,9.62,2.67,13.51,7.19c0,0,44.78-17.97,49.94-19.5  c4.12-1.22,2.29,13.47-2.25,21.63c-1.48,2.65-4.03,4.53-7,5.18C231.96,289.24,209.7,295.1,194.37,308.08"></path>	<path class="st2" d="M194.85,310.66l-1.23-0.43c-0.4-0.14-9.87-3.53-13.54-13.07c-2.76-7.17-1.47-15.69,3.83-25.34l0.87-1.58  l1.74,0.48c0.39,0.11,8.76,2.47,13.46,6.71c7.77-3.11,44-17.6,48.74-19c1.48-0.44,2.93,0.01,3.88,1.2  c3.16,3.94,0.15,17.17-3.49,23.72c-1.78,3.2-4.88,5.5-8.5,6.3c-8.52,1.89-29.95,7.63-44.76,20.16L194.85,310.66z M187.04,275.67  c-3.89,7.69-4.8,14.35-2.72,19.82c2.22,5.82,7.37,8.85,9.67,9.95c15.52-12.56,36.98-18.32,45.63-20.23c2.35-0.52,4.35-2,5.5-4.07  c1.64-2.94,3.05-7.15,3.78-11.27c0.62-3.52,0.54-5.77,0.32-6.81c-6.18,2.11-34.26,13.28-48.95,19.17l-1.51,0.61l-1.06-1.23  C195.39,278.92,190.21,276.75,187.04,275.67"></path>	<path class="st4" d="M193.99,285.66c0,0-22.06-18.55-3-42.83c0,0,9.05,4.2,12.17,9.29c0,0,47.11-10.46,52.44-11.13  c5.33-0.67-2.56,21.67-10.28,24.83C245.32,265.83,211.48,269.66,193.99,285.66"></path>	<path class="st2" d="M194.05,288.69l-1.53-1.29c-0.24-0.2-23.51-20.27-3.32-45.98l1.11-1.42l1.64,0.76  c0.36,0.17,8.24,3.86,12.19,8.81c8.17-1.81,46.27-10.22,51.18-10.83c1.94-0.24,3.55,0.91,4.08,2.94  c1.51,5.75-5.61,23.14-13.21,26.26l-0.29,0.12l-0.32,0.04c-0.33,0.04-33.31,3.95-50.05,19.25L194.05,288.69z M191.66,245.72  c-13.11,18.21-1.83,32.52,2.39,36.86c7.47-6.23,18.07-11.29,31.56-15.03c9.6-2.67,17.35-3.72,19.1-3.94  c2.6-1.27,5.87-5.91,8.23-11.71c1.76-4.34,2.18-7.24,2.13-8.52c-6.44,1.08-35.96,7.53-51.42,10.97l-1.59,0.35l-0.85-1.39  C199.36,250.29,194.61,247.3,191.66,245.72"></path>	<path class="st2" d="M195.15,273.66c-0.32-8.1,0.9-16.87,6.46-23.22l3.08,3.36c-1.34,1.03-2.58,2.31-3.67,3.78  C197.76,262.28,195.97,268,195.15,273.66"></path>	<path class="st2" d="M192.07,298.7c-0.57-4.58-0.88-9.05-0.25-13.73l4.35,1.37C194.21,290.1,192.99,294.49,192.07,298.7"></path>	<path class="st2" d="M192.8,323.34c-0.82-5.13-1.6-10.27-1.22-15.53l4.43,1.06C194.23,313.45,193.49,318.47,192.8,323.34"></path>	<path class="st2" d="M203.15,244.77c1.4-6.49,3.5-14.32,9.5-18.15l1.89,4.15c-1.14,0.33-2.35,1.11-3.46,2.09  C207.58,236.07,205.12,240.45,203.15,244.77"></path>	<path class="st2" d="M141.6,163.87c-4.87-2.31-3.34-5.63-0.34-8.82c2.34-2.62,4.84-4.96,7.5-7.27l2.56,3.77  c-3.6,1.96-7.3,4.05-10.45,6.7C138.53,160.02,139.49,162.39,141.6,163.87"></path>	<path class="st2" d="M134.49,157.89c-3.18,4.19-6.87,8.17-11.92,10.17c-1.79,0.67-3.97,0.98-6.17,0.42l1.52-4.3  c1.01,0.54,2.34,0.76,3.8,0.57C126.48,164.01,130.82,160.97,134.49,157.89"></path>	<path class="st2" d="M259.32,147.55c0,0-4.5-4.45-11.94,0.55c-5.71,3.84-12.65,9.85-16.32,12.67c-0.46,0.36-0.13,1.1,0.44,0.98  c4.51-0.86,13.51-2.4,18.85-2.09c3.15,0.19,6.29-0.83,8.57-3.02C261.21,154.44,262.68,151.28,259.32,147.55"></path>	<path class="st2" d="M231.38,164.05c-1.1,0-2.11-0.64-2.58-1.67c-0.54-1.2-0.19-2.6,0.86-3.41c1.12-0.86,2.54-2.02,4.19-3.36  c3.66-2.98,8.23-6.69,12.25-9.39c4.53-3.04,8.24-3.03,10.56-2.48c2.6,0.62,4.1,2.04,4.26,2.2l0.09,0.09  c3.61,4,3.42,8.48-0.52,12.27c-2.65,2.55-6.4,3.88-10.28,3.65c-5.21-0.31-14.52,1.33-18.29,2.05  C231.74,164.03,231.56,164.05,231.38,164.05 M254.23,148c-1.44,0-3.31,0.47-5.59,2c-3.52,2.37-7.57,5.62-10.99,8.39  c4.38-0.66,9.31-1.2,12.82-0.99c2.61,0.16,5.12-0.71,6.85-2.38c2.12-2.05,2.24-3.75,0.37-5.86C257.39,148.89,256.22,148,254.23,148  "></path>	<path class="st2" d="M250.15,170c-4.68,1.86-10.31,1.06-14.34-2.04c-0.35-0.31-1.29-1.11-1.63-1.42c-0.32-0.33-1.12-1.25-1.45-1.6  c-0.6-0.74-1.12-1.54-1.68-2.33l4.08-2.03c0.43,1.02,0.89,2.2,1.49,3.16C239.3,168.52,244.76,170.83,250.15,170"></path>	<path class="st2" d="M252.48,166.04c-6.78,1-14.46,1.51-20.23-3.03l3.29-3.15c0.73,1.01,1.83,1.92,3.11,2.67  C242.78,164.87,247.75,165.72,252.48,166.04"></path>	<path class="st2" d="M165.75,149.69c0.64-0.26,1.3-0.64,2.02-0.33c0.86,0.32,1.44,1.47,1,2.58c-3.78,6.05-11.44,9.67-18.52,8.4  l-0.98-0.21c-0.63-0.11-1.21-0.62-1.37-1.17c-0.28-0.77,0.09-1.68,0.84-1.94c0.46-0.12,0.89-0.18,1.36-0.25  c-0.26,0.37-0.55,0.73-0.84,1.07c-0.09,0.17,0.09,0.37,0.23,0.31c0.08-0.03,0.04-0.18-0.02-0.26c-0.05-0.02,0.06-0.03,0.12-0.05  l0.2-0.05c2.95-0.74,5.89-1.71,8.65-2.88c2.65-1.1,5.32-2.51,7.9-3.91l0.38-0.19c0.09-0.04,0.06,0.02,0.11,0.03  c0.13,0.11,0.36-0.14,0.25-0.44C166.92,149.99,166.13,149.91,165.75,149.69"></path>	<path class="st2" d="M138.51,146.59c0.56-0.47,0.91-0.95,1.71-1.15c0.73-0.24,1.93,0.36,1.96,1.36c0.11,0.69-0.4,1.39-0.65,1.96  c-0.43,0.85-0.93,1.65-1.47,2.44c-2.93,4.13-7.25,7.28-12.06,8.85c-1.21,0.38-2.44,0.67-3.7,0.83c-0.81,0.16-1.78,0.09-2.25-0.74  c-0.66-1.31,0.83-1.83,1.78-2.16c-0.19,0.43-0.42,0.86-0.64,1.27c-0.04,0.1-0.02,0.18,0.03,0.19c0.05,0.01,0.1-0.1,0.09-0.18  c-0.02-0.14-0.05-0.18,0.03-0.29c0.04-0.08,0.11-0.12,0.2-0.18c4.77-3.16,9.46-6.41,13.91-10c0.76-0.63,1.61-1.3,2.38-1.93  c0.11-0.08,0.27-0.23,0.27-0.18c0.06,0.05,0.13,0.31,0.26,0.29c0.12-0.01,0.05-0.17-0.13-0.26  C139.78,146.48,139.03,146.65,138.51,146.59"></path>	<path class="st2" d="M146.15,166.74c3.26-1.79,6.43-2.19,9.97-1.93c1.11,0.1,2.23,0.24,3.69,0.63c-0.66,1.34-1.74,2.24-2.89,2.86  C153.43,170.05,148.95,169.71,146.15,166.74"></path>	<path class="st2" d="M171.38,162.05c1.48-1.68,2.88-3.65,3.63-5.68l3.41,3.02C176.18,160.78,173.85,161.54,171.38,162.05"></path>	<path class="st5" d="M130.91,177.96c0,0-1.21,15.37,0.96,16.81c2.17,1.44,11.06-9.67,11.72-10.89  C143.6,183.89,133.52,177.96,130.91,177.96"></path>	<path class="st2" d="M132.34,197.18c-0.77,0-1.34-0.26-1.72-0.51c-0.9-0.6-3.28-2.19-1.97-18.89l0.16-2.1h2.11  c2.91,0,10.65,4.36,13.84,6.24l1.9,1.12l-1.06,1.94c-0.52,0.95-8.16,11.06-12.35,12.09C132.92,197.15,132.62,197.18,132.34,197.18   M133,180.93c-0.23,4.4-0.21,8.93,0.16,11.14c1.93-1.43,5.21-5.1,7.1-7.47C137.63,183.13,134.89,181.74,133,180.93"></path>	<path class="st5" d="M167.48,192.75l1.24,9.33c0.08,0.7,0.9,1.04,1.45,0.59c1.87-1.53,6.17-5.3,7.42-9.48  C177.6,193.19,171.19,192.77,167.48,192.75"></path>	<path class="st2" d="M169.61,205.14c-0.4,0-0.81-0.08-1.19-0.23c-1.07-0.44-1.83-1.42-1.96-2.57l-1.58-11.88l2.61,0.01  c3.73,0.02,9.99,0.43,10.26,0.45l2.85,0.19l-0.82,2.74c-1.28,4.29-5.15,8.12-8.16,10.59C171.04,204.9,170.33,205.14,169.61,205.14   M170.98,201.74l0.01,0.04C170.98,201.76,170.98,201.75,170.98,201.74 M170.09,195.08l0.55,4.15c1.43-1.35,2.6-2.69,3.44-3.97  C172.85,195.2,171.43,195.13,170.09,195.08"></path>	<path class="st5" d="M181.95,192.16l1.24-9.33c0.08-0.7,0.77-0.78,1.45-0.59c3.17,0.88,6.17,6.8,7.42,10.98  C192.07,193.22,185.63,192.36,181.95,192.16"></path>	<path class="st2" d="M195.26,195.94l-3.49-0.46c-0.06-0.01-6.4-0.85-9.95-1.04l-2.46-0.14l1.57-11.77c0.1-0.87,0.56-1.63,1.29-2.12  c0.82-0.55,1.9-0.68,3.03-0.36c4.53,1.26,7.78,8.46,8.99,12.52L195.26,195.94z M184.53,190.07c1.37,0.12,2.82,0.28,4.1,0.43  c-1.04-2.31-2.32-4.3-3.44-5.34L184.53,190.07z M185.46,183.09l-0.01,0.04C185.45,183.12,185.46,183.11,185.46,183.09"></path>	<path class="st5" d="M193.49,193.77l-0.69,10.43c0.08,0.7,0.9,1.04,1.45,0.59c1.87-1.53,7.1-4.22,8.35-8.4  C202.6,196.39,197.19,193.79,193.49,193.77"></path>	<path class="st2" d="M193.68,207.27c-0.4,0-0.81-0.08-1.19-0.23c-1.07-0.43-1.83-1.42-1.96-2.57l-0.02-0.21l0.84-12.77l2.14,0.01  c4.1,0.02,9.49,2.56,10.09,2.84l1.75,0.84l-0.56,1.86c-1.21,4.06-5.09,6.72-7.66,8.49c-0.59,0.41-1.1,0.76-1.43,1.02  C195.11,207.03,194.4,207.27,193.68,207.27 M195.6,196.33l-0.33,4.94c1.43-0.99,3.12-2.27,4.2-3.73  C198.31,197.09,196.91,196.62,195.6,196.33"></path>	<path class="st2" d="M134.49,172c5.77,0.5,11.2,1.96,16.54,4.05c1.75,0.64,3.43,1.65,5.06,2.64c3.06,1.55,6.6,2.73,9.93,3.83  c3.52,1.04,6.98,2.44,10.69,2.7c-6.02,2.59-19.32,0.04-24.68-3.67C146.18,178.37,140.04,175.91,134.49,172"></path>	<path class="st5" d="M149.12,187.39l8.56-11.54c0.56-0.76,1.74-0.6,2.08,0.28c1.15,3.03,2.95,9.07,1.61,14.76  C161.38,190.89,153.44,189.84,149.12,187.39"></path>	<path class="st2" d="M163.12,193.41l-2.04-0.27c-0.34-0.04-8.43-1.13-13.08-3.77l-2.24-1.27l10.09-13.61  c0.76-1.02,2.01-1.55,3.27-1.37c1.26,0.17,2.32,1.02,2.77,2.2c1.27,3.33,3.18,9.84,1.7,16.09L163.12,193.41z M152.63,186.48  c2.32,0.86,5.03,1.45,6.87,1.79c0.33-3.45-0.42-6.91-1.2-9.42L152.63,186.48z"></path>	<path class="st2" d="M276.3,204.44c-7.43,0-27.49-4.5-34.98-6.99c-8.17,5.85-17.37,8.82-33.86,1.69  c-9.19-3.97-19.32-4.01-29.13-4.01c-0.19,0-0.38,0-0.57,0c-12.46,0-24.23-0.06-33.14-7.99c-14.08-12.54-34.57-6.04-34.78-5.97  l-1.41-4.33c0.94-0.31,23.2-7.36,39.22,6.9c7.62,6.79,18.54,6.84,30.11,6.84c0.19,0,0.38,0,0.57,0c10.27,0,20.88,0.04,30.92,4.38  c18.82,8.14,26.17,1.86,36.33-6.83c0.68-0.58,1.37-1.17,2.07-1.76c16.59-14.01,27.22-19.59,34.42-18.12l1.11,0.23l0.49,1.02  c5.39,11.21,7.72,18.09,6.94,20.44l-0.07,0.19c-0.98,2.24-6.2,13.49-12.94,14.25C277.25,204.42,276.8,204.44,276.3,204.44   M245.7,194.03c9.25,2.63,27.07,6.31,31.41,5.82c3.02-0.34,7.12-6.71,9.16-11.28c-0.04-1.88-3.07-9.45-6.15-15.98  c-8.58-0.4-24.22,12.8-29.51,17.27c-0.69,0.59-1.38,1.17-2.05,1.74C247.61,192.43,246.65,193.24,245.7,194.03"></path>	<path class="st2" d="M235.32,184.33c7.39-10.13,29.54-29.11,42.47-28.49c-4.03,1.55-7.3,4.21-10.79,6.65l-10.23,7.55  C249.8,175.1,242.92,180.14,235.32,184.33"></path>	<path class="st6" d="M211.61,149.72c0,0-2.24,5.31,1.98,7.96"></path>	<path class="st2" d="M211.61,149.72c0.92,1.57,1.44,2.55,1.76,3.96c0.18,1.44,0,2.13,0.22,4  C208.63,159.04,206.91,151.21,211.61,149.72"></path>	<path class="st0" d="M247.92,154.02c0,2.25,1.82,4.07,4.07,4.07c2.25,0,4.07-1.82,4.07-4.07c0-2.25-1.82-4.07-4.07-4.07  c0,0-1.63,0.1-2.66,1.17c0,0,3.46,1.66,3.32,2.9C252.65,154.02,248.9,153.63,247.92,154.02"></path>	<path class="st2" d="M235.32,149.66c3.3-6.88,11.41-13.26,19.44-12.23c2.82,0.38,5.51,2.27,6.54,4.89c-2.44-1.18-4.6-1.62-6.7-1.31  C247.6,142.15,241.86,146.81,235.32,149.66"></path>	<path class="st2" d="M260.09,173.77c5.51-8.51,17.67-17.08,27.44-9.92c10.72,8.24,12.29,27.26,11.59,39.78  c-2.25-8.61-3.84-17.18-7.11-25.33c-1.01-2.51-2.25-5.15-3.84-7.33C280.58,159.65,268.29,167.43,260.09,173.77"></path>	<path class="st2" d="M281.65,170.49c0,0,7.72,14.29,6.83,18.73c-0.89,4.44-8.21,12.92-11.11,12.9c-2.9-0.02-35.93-4.45-34.96-8.34  C242.41,193.77,272.82,165.75,281.65,170.49"></path>	<path class="st0" d="M248.43,191.48c0.88,0.57,2.96,2.11,3.13,4.02c0.03,0.3,0.33,0.5,0.62,0.42c1.33-0.35,4.37-2.29,4.54-12.63  c0.01-0.41-0.46-0.66-0.79-0.42c-1.68,1.19-5.59,4.21-7.67,7.95C248.14,191.05,248.21,191.34,248.43,191.48"></path>	<path class="st0" d="M253.58,198.08c0,0-1.17-0.58,1.35-2.3c0.38-0.26,0.67-0.63,0.85-1.06c0.7-1.68,2.52-5.91,3.39-6.31  c1.08-0.5,2.67,6.08,2.08,8.25C260.66,198.83,257.34,200.25,253.58,198.08"></path>	<path class="st0" d="M259.23,182.33c0,0,2.58,2.11,2.5,5.39c-0.08,3.28,0,4.03,0.92,3.78c0.92-0.25,4.67-3.08,5-10.83  C267.98,172.91,259.23,182.33,259.23,182.33"></path>	<path class="st0" d="M270.59,183.98c-0.4-0.22-0.9-0.03-1.09,0.38c-0.98,2.2-3.94,8.87-3.94,9.63c0,0.92,1,4.67,3.42,4.92  c2.42,0.25,3.83,1.08,4.92-1.67C274.91,194.67,274.25,186.01,270.59,183.98"></path>	<path class="st0" d="M276.66,191.92c-0.27,0.42-0.91,0.27-0.97-0.22c-0.28-2.41-1.1-7.31-3.37-9.95c-3.08-3.58-1.17-5.92-0.5-6.75  c0.67-0.83,4.42-1.75,6.08,0c1.67,1.75,2.91,4.24,2.25,8C279.42,187.16,277.69,190.32,276.66,191.92"></path>	<path class="st0" d="M277.32,196.06c-0.11-0.7,0.05-1.41,0.43-2.01c0.77-1.21,2.18-3.62,2.58-5.64c0.57-2.83,0.32-3.6,0.82-3.84  c0.44-0.21,1.48,0.88,1.71,1.65c0.07,0.25,0.13,0.5,0.21,0.75c0.38,1.11,1.22,3.92,0.83,5.69c-0.5,2.25-1,5.66-2.67,5.83  C279.76,198.64,277.75,198.72,277.32,196.06"></path>	<path class="st3" d="M105.33,315.85c0,0,14.2,25.25,19.44,25.81c5.24,0.56,32.46,2.24,42.56-22.16c10.1-24.41,3.67-28.9-9.95-28.34  c-13.62,0.56-34.53,4.98-38.59,9.77C118.8,300.93,103.37,308.84,105.33,315.85"></path>	<path class="st2" d="M129.86,344.19c-2.41,0-4.27-0.15-5.33-0.26c-2.15-0.23-5.42-2.09-13.35-14.13c-4.2-6.38-7.8-12.77-7.84-12.83  l-0.13-0.24l-0.07-0.26c-2.26-8.07,10.73-15.52,14.25-17.37c2.44-2.5,8.01-4.8,16.59-6.85c7.62-1.82,16.33-3.07,23.31-3.36  c5.38-0.23,11.98,0.13,15.27,4.84c3.43,4.91,2.47,13.13-3.13,26.65C160.75,341.36,140.26,344.19,129.86,344.19 M107.47,315.01  c7.15,12.67,15.18,23.81,17.58,24.39c5.02,0.54,30.72,2.07,40.18-20.78c4.73-11.44,5.94-18.94,3.6-22.29  c-1.56-2.23-5.16-3.15-11.35-2.89c-14.49,0.6-33.83,5.29-36.94,8.96l-0.29,0.35l-0.4,0.21  C114.4,305.75,106.85,311.44,107.47,315.01"></path>	<path class="st3" d="M149.78,299.36c0,0,5.01,4.22,11.95-1.17c6.94-5.39,4.18-21.79-4.52-28.58s-15.92,3.28-14.43,13.35  c0,0,4.67-2.81,5.31-1.4c0.64,1.4,5.16,10.07,5.29,11.71C153.5,294.87,153.88,296.63,149.78,299.36"></path>	<path class="st2" d="M154.64,303.19c-2.87,0-5.13-1.09-6.32-2.09l-2.33-1.96l2.53-1.68c2.77-1.85,2.7-2.64,2.61-3.75l-0.02-0.21  c-0.26-1.25-3.04-6.84-4.09-8.96c-0.17-0.33-0.32-0.64-0.45-0.91c-0.72,0.26-1.75,0.76-2.61,1.28l-2.93,1.76l-0.5-3.38  c-1.04-7.01,1.7-14.13,6.5-16.93c2.08-1.21,6.36-2.64,11.59,1.44c5.58,4.36,9.33,12.56,9.32,20.41c-0.01,5.19-1.71,9.37-4.8,11.77  C160.05,302.38,157.12,303.19,154.64,303.19 M154.1,298.64c1.57,0.13,3.7-0.28,6.23-2.25c1.95-1.52,3.03-4.42,3.04-8.17  c0.01-6.42-3.1-13.33-7.56-16.81c-2.38-1.86-4.56-2.22-6.49-1.1c-2.53,1.47-4.21,5.09-4.43,9.09c1.25-0.45,2.48-0.66,3.47-0.36  c0.82,0.25,1.46,0.81,1.8,1.58c0.14,0.31,0.49,1,0.93,1.9c3.39,6.8,4.45,9.27,4.56,10.58l0.02,0.23  C155.8,294.95,155.75,296.68,154.1,298.64 M151.1,293.45c0,0.01,0,0.02,0,0.03L151.1,293.45z"></path>	<path class="st3" d="M136.56,305.43c0,0,5.77,4.69,13.77-1.3c7.99-6,4.82-24.25-5.21-31.81c-10.03-7.56-18.34,3.65-16.63,14.86  c0,0,5.38-3.13,6.12-1.56c0.73,1.56,5.95,11.21,6.1,13.04C140.85,300.43,141.29,302.38,136.56,305.43"></path>	<path class="st2" d="M142.19,309.45c-0.79,0-1.5-0.07-2.13-0.18c-2.94-0.51-4.74-1.91-4.93-2.07l-2.44-1.98l2.64-1.7  c3.33-2.14,3.24-3.08,3.13-4.39l-0.02-0.29c-0.24-1.26-3.5-7.59-4.73-9.97c-0.25-0.48-0.47-0.92-0.66-1.28  c-0.86,0.26-2.25,0.89-3.41,1.56l-2.89,1.68l-0.51-3.3c-1.15-7.56,1.83-15.32,7.1-18.47c2.34-1.4,7.17-3.07,13.15,1.44  c6.37,4.8,10.64,13.86,10.63,22.54c-0.01,5.71-1.93,10.3-5.42,12.92C148.05,308.69,144.74,309.45,142.19,309.45 M140.97,304.79  c1.94,0.29,4.7-0.03,7.99-2.5c2.32-1.74,3.6-5.03,3.6-9.28c0.01-7.2-3.62-14.97-8.82-18.89c-2.02-1.52-5.06-2.96-8.08-1.16  c-2.99,1.79-4.95,6.06-5.11,10.65c1.54-0.6,3.09-0.93,4.27-0.56c0.83,0.26,1.48,0.82,1.84,1.58c0.17,0.35,0.57,1.13,1.08,2.13  c3.84,7.44,5.11,10.28,5.22,11.69l0.02,0.26C143.16,300.57,143.09,302.55,140.97,304.79"></path>	<path class="st3" d="M123.44,311.06c0,0,5.58,5.17,13.31-1.44s4.66-26.71-5.04-35.04c-9.69-8.33-17.73,4.02-16.08,16.37  c0,0,5.2-3.45,5.91-1.72c0.71,1.72,5.75,12.35,5.89,14.36C127.58,305.56,128.01,307.71,123.44,311.06"></path>	<path class="st2" d="M128.85,315.26c-3.15,0-5.64-1.32-6.95-2.53l-2.03-1.88l2.23-1.63c3.31-2.43,3.22-3.63,3.1-5.15l-0.02-0.32  c-0.19-1.37-3.4-8.48-4.61-11.15c-0.23-0.52-0.44-0.98-0.62-1.37c-0.82,0.32-2.05,0.96-3.04,1.62l-3.03,2.01l-0.48-3.61  c-1.18-8.84,2.05-17.48,7.68-20.54c2.21-1.2,6.73-2.52,12.14,2.13c6.11,5.25,10.21,15.12,10.19,24.55  c-0.01,6.16-1.84,11.11-5.16,13.95C134.83,314.27,131.59,315.26,128.85,315.26 M127.45,310.57c1.81,0.4,4.51,0.16,7.82-2.67  c2.26-1.93,3.56-5.76,3.56-10.49c0.01-8.05-3.53-16.73-8.61-21.09c-2.55-2.19-4.9-2.72-7-1.58c-3.25,1.76-5.41,6.89-5.53,12.49  c1.44-0.61,2.88-0.94,4.03-0.59c0.89,0.27,1.57,0.89,1.92,1.74c0.16,0.39,0.55,1.25,1.05,2.36c3.23,7.14,4.89,11.06,5.01,12.71  l0.02,0.28C129.9,305.78,129.81,307.99,127.45,310.57"></path>	<path class="st3" d="M108.98,321.46c0,0,6.63,5.05,15.8-1.4c9.17-6.45,5.52-26.09-5.98-34.23c-11.5-8.14-21.04,3.93-19.08,15.99  c0,0,4.6-1.7,5.44-0.01c0.84,1.68,8.4,10.39,8.57,12.36C113.89,316.09,114.4,318.19,108.98,321.46"></path>	<path class="st2" d="M115.47,325.64c-4.68,0-7.67-2.21-7.87-2.36l-2.67-2.03l2.87-1.73c3.92-2.37,3.82-3.45,3.69-4.83l-0.02-0.18  c-0.43-1.17-3.49-5.11-5.14-7.24c-1.49-1.91-2.41-3.11-2.92-3.92c-0.65,0.02-1.91,0.26-2.91,0.62l-2.59,0.95l-0.45-2.72  c-1.28-7.88,1.8-15.87,7.5-19.43c4.53-2.83,10.05-2.39,15.14,1.21c7.26,5.14,12.13,14.84,12.12,24.15  c-0.01,6.12-2.19,11.02-6.14,13.8C122.06,324.76,118.42,325.64,115.47,325.64 M113.56,320.89c2.33,0.43,5.78,0.21,9.91-2.7  c2.71-1.91,4.21-5.49,4.21-10.08c0.01-7.77-4.18-16.17-10.19-20.42c-3.62-2.56-7.11-2.93-10.09-1.07  c-3.54,2.21-5.73,7.14-5.64,12.3c2.06-0.34,4.42-0.19,5.45,1.87c0.24,0.46,1.62,2.24,2.73,3.67c4.43,5.7,5.93,7.88,6.07,9.51  l0.03,0.28C116.21,316.27,116.13,318.43,113.56,320.89 M111.46,314.37c0,0.01,0,0.01,0,0.02L111.46,314.37z"></path>	<path class="st3" d="M160.88,307.82c0,0-19.73,11.83-22.17-0.5c-4.77-24.15,30.34-14.23,30.34-14.23"></path>	<path class="st2" d="M160.88,307.82c-5.18,3.14-14.74,8.42-20.52,4.36c-2.64-2.03-3.08-5.43-3.33-8.49  c-0.45-4.78,1.85-9.81,6.27-11.99c7.91-3.96,18.04-2.58,26.37-0.8c0,0-1.24,4.39-1.24,4.39c-7.33-1.97-16.48-3.8-23.68-0.75  c-5.14,2.23-5.86,8.02-4.83,13.04C141.82,316.47,155.65,310.46,160.88,307.82"></path>	<path class="st4" d="M155.76,295.09c0,0-11.11-5.05-19.94,8.7c-8.83,13.75-4.03,17.68-4.03,17.68s12.89-13.19,21.02-14.87  C160.93,304.91,155.76,295.09,155.76,295.09"></path>	<path class="st2" d="M131.96,324.55l-1.61-1.32c-0.33-0.27-2-1.82-2.13-5.36c-0.14-4.06,1.77-9.21,5.69-15.3  c9.78-15.23,22.67-9.6,22.8-9.54l0.71,0.32l0.36,0.69c0.33,0.63,3.21,6.33,1.14,10.72c-0.69,1.47-2.24,3.37-5.65,4.08  c-6.1,1.26-16.4,10.7-19.85,14.23L131.96,324.55z M150.84,296.46c-3.44,0-8.55,1.46-13.11,8.56c-3.86,6.01-4.93,9.99-4.97,12.32  c4.32-4.05,13.12-11.64,19.58-12.98c1.9-0.39,2.31-1.27,2.45-1.56c0.78-1.64-0.06-4.38-0.7-5.89  C153.4,296.71,152.26,296.46,150.84,296.46"></path>	<path class="st3" d="M268.19,350.69c-3.46-1.01-6.37-3.36-8.16-6.48c-4.91-8.61-14.48-28.98-5.87-44.81  c11.22-20.63,26.37-24.41,40.96-21.12c14.59,3.29,37.59,30.23,29.74,54.07C317.97,353.27,284.31,355.41,268.19,350.69"></path>	<path class="st2" d="M284.6,355.06c-6.13,0-12.11-0.73-17.05-2.18c-4.02-1.18-7.39-3.85-9.5-7.54  c-4.84-8.49-15.12-30.07-5.89-47.03c10.31-18.95,24.93-26.44,43.46-22.25c8.99,2.03,19.94,11.68,26.61,23.46  c6.46,11.41,8.16,23.32,4.79,33.55c-2.32,7.04-8.81,16.27-26.54,20.29C295.48,354.49,289.98,355.06,284.6,355.06 M286.28,279.52  c-12.43,0-22.53,7.02-30.11,20.96c-8.13,14.95,1.38,34.77,5.85,42.59c1.52,2.66,3.94,4.58,6.82,5.43  c8.6,2.52,20.64,2.68,30.65,0.41c8.64-1.96,19.68-6.54,23.22-17.27c2.96-8.99,1.39-19.61-4.43-29.88  c-5.99-10.58-15.93-19.52-23.65-21.26C291.74,279.85,288.95,279.52,286.28,279.52"></path>	<path class="st2" d="M267.41,305.12c0.07,8.24,0.87,16.45,2.77,24.45c0.48,1.95,1.14,3.85,1.9,5.66c1.49,3.66,2.39,7.3,3.7,11.03  l2.13,5.93l-0.48,0.49c-2.18-0.8-4.07-2.18-5.71-3.79c-3.17-3.23-5.43-7.41-6.16-11.86c-0.38-2.2-0.55-4.39-0.76-6.56  c-0.8-8.51-0.09-17.16,1.95-25.44L267.41,305.12"></path>	<path class="st2" d="M311.54,315.06c2.72,7.87,2.82,16.48,0.75,24.55c-1.42,5.14-6.05,9.46-11.48,10.02l-0.4-0.56  c1.93-4.3,3.35-8.06,5.62-12.03c1.58-2.44,2.54-5.25,3.2-8.11c1.13-4.48,1.61-9.07,1.63-13.74  C310.86,315.19,311.54,315.06,311.54,315.06"></path>	<path class="st1" d="M102.03,300.68l-11.54,6.91c0,0-9.9-10.69-12.88-5.96c-2.98,4.73,9.21,41.63,18.26,38.74  c5.5-1.76,2.17-13.39,2.17-13.39l12.33-6.42c0,0,11.88-7.62-3.23-19.62C104.69,298.97,102.03,300.68,102.03,300.68"></path>	<path class="st2" d="M94.81,342.82c-2.51,0-5.08-1.68-7.66-5.01c-6.82-8.8-14.7-32.26-11.46-37.4c0.82-1.31,2.11-2.11,3.62-2.25  c3.93-0.34,8.94,3.94,11.57,6.54l9.96-5.97c1.51-0.95,4.8-1.93,7.73,0.4c5.89,4.68,8.75,9.44,8.51,14.14  c-0.29,5.8-5.26,9.05-5.47,9.19l-0.18,0.1l-10.75,5.6c0.83,3.9,1.89,12.45-4.11,14.37C95.98,342.73,95.4,342.82,94.81,342.82   M79.91,302.66c-0.11,0-0.2,0.02-0.28,0.06c0,0-0.04,0.02-0.1,0.12c-1.37,3.18,4.87,25.27,12.13,33.29  c1.43,1.58,2.7,2.33,3.51,2.08c2.38-0.76,1.61-7.28,0.67-10.6l-0.51-1.79l13.86-7.22c0.44-0.31,3.18-2.39,3.33-5.58  c0.14-3.1-2.21-6.66-6.8-10.3c-1.09-0.86-2.27-0.23-2.49-0.1l-0.03,0.02l-13.12,7.86l-1.26-1.36  C85.39,305.44,81.27,302.66,79.91,302.66"></path>	<path class="st3" d="M163.31,349.68c-1.58-2.61-1.75-5.85-0.67-8.7c2.58-6.8,9.72-21.24,24.56-23.81  c19.54-3.38,9.83,11.56,5.02,15.83C187.89,336.84,170.16,360.98,163.31,349.68"></path>	<path class="st2" d="M168.14,354.94c-0.25,0-0.5-0.01-0.75-0.03c-1.73-0.16-4.17-1-6.03-4.05c-1.89-3.12-2.21-7.12-0.85-10.69  c2.52-6.66,10.14-22.45,26.3-25.24c2.77-0.48,11.21-1.94,13.77,3.37c2.61,5.42-3.61,13.53-6.85,16.4  c-0.71,0.63-1.99,2.06-3.48,3.72C182.75,346.8,174.88,354.94,168.14,354.94 M165.26,348.5c0.94,1.56,1.91,1.82,2.55,1.88  c5.18,0.49,14.55-9.97,19.05-14.99c1.65-1.84,2.95-3.29,3.85-4.09c3.39-3,6.79-8.89,5.76-11.02c-0.51-1.07-3.12-1.86-8.88-0.86  c-13.85,2.4-20.57,16.44-22.82,22.37C163.91,344.05,164.09,346.57,165.26,348.5"></path>	<path class="st3" d="M182.63,346.66c-1.36-2.38-1.53-5.32-0.62-7.9c2.15-6.16,8.14-19.22,20.74-21.46  c16.6-2.95,8.44,10.55,4.37,14.4C203.45,335.15,188.52,356.96,182.63,346.66"></path>	<path class="st2" d="M186.78,351.68c-0.21,0-0.41-0.01-0.61-0.03c-1.59-0.14-3.84-0.93-5.52-3.86v0c-1.66-2.91-1.95-6.47-0.8-9.79  c2.12-6.07,8.57-20.47,22.5-22.95c6.38-1.13,10.42-0.09,12.02,3.09c2.51,4.98-2.86,12.53-5.69,15.21  c-0.59,0.55-1.66,1.84-2.91,3.33C199.4,344.29,192.7,351.68,186.78,351.68 M184.61,345.52c0.85,1.49,1.66,1.56,1.96,1.59  c0.08,0.01,0.16,0.01,0.24,0.01c4.27,0,12.08-9.34,15.46-13.37c1.4-1.67,2.5-2.98,3.28-3.72c2.81-2.66,5.68-8.01,4.75-9.85  c-0.43-0.85-2.54-1.48-7.16-0.65c-11.56,2.05-17.14,14.65-18.99,19.96C183.45,341.54,183.61,343.79,184.61,345.52"></path>	<path class="st3" d="M205.41,347.46c-1.23-2.4-3.69-7.85-2.92-10.42c1.82-6.12,3.08-16.2,14.19-18.29  c14.62-2.74,10.72,10.39,7.18,14.18C220.66,336.35,210.74,357.83,205.41,347.46"></path>	<path class="st2" d="M208.9,352.54c-0.08,0-0.15,0-0.23-0.01c-1.5-0.06-3.64-0.82-5.29-4.03c-1.58-3.07-4.08-8.74-3.08-12.11  c0.21-0.71,0.41-1.48,0.63-2.27c1.64-6.17,4.13-15.5,15.32-17.6c7.62-1.43,10.81,1.17,12.15,3.6c2.51,4.58-0.11,11.41-2.89,14.38  c-0.58,0.62-1.69,2.39-2.86,4.27C217.93,346.3,213.63,352.54,208.9,352.54 M207.43,346.42c0.49,0.96,1.03,1.55,1.43,1.57  c0.02,0,0.03,0,0.05,0c2.58,0,7.68-8.15,9.87-11.64c1.4-2.25,2.51-4.02,3.4-4.96c1.79-1.92,3.5-6.74,2.22-9.07  c-1.16-2.12-5.08-1.73-7.32-1.31c-8.37,1.57-10.17,8.33-11.76,14.29c-0.22,0.85-0.44,1.65-0.66,2.4  C204.36,338.74,205.31,342.29,207.43,346.42"></path>	<path class="st3" d="M253.44,349.11c-9.5,1.76-9.96-0.85-9.96-0.85c-13.34,17.72-23.21,2.45-23.21,2.45  c-1.36-2.38-1.71-8.35-0.81-10.94c2.15-6.16,3.72-16.27,16.32-18.51c0,0,19.96,0.61,26.34,14.75  C268.51,350.15,253.44,349.11,253.44,349.11"></path>	<path class="st2" d="M230.52,359.1c-0.15,0-0.29,0-0.44-0.01c-7.19-0.26-11.54-6.87-11.72-7.15l-0.06-0.11  c-1.79-3.14-2.04-9.78-0.98-12.82c0.25-0.71,0.49-1.48,0.74-2.28c1.94-6.18,4.87-15.51,17.33-17.72l0.23-0.04l0.24,0.01  c0.87,0.03,21.46,0.83,28.35,16.09c2.27,5.02,2.37,9.07,0.31,12.03c-3.01,4.32-9.32,4.37-10.92,4.3c-4.42,0.79-7.62,0.8-9.7,0  C239.59,356.51,235.09,359.1,230.52,359.1 M222.22,349.51c0.34,0.49,3.5,4.88,8.05,5.03c0.08,0,0.16,0,0.24,0  c3.57,0,7.32-2.57,11.15-7.66l3.16-4.2l0.79,4.48c0.65,0.22,2.6,0.58,7.42-0.31l0.28-0.05l0.28,0.02c1.48,0.09,5.65-0.14,7.18-2.35  c1.34-1.93,0.34-5.17-0.73-7.54c-5.39-11.94-21.99-13.28-24.11-13.4c-9.53,1.8-11.66,8.57-13.54,14.56  c-0.27,0.85-0.52,1.66-0.79,2.42C220.9,342.57,221.25,347.72,222.22,349.51"></path>	<path class="st4" d="M171.57,337.02c0,0-10.9-3.76-17.75,10.33c-6.86,14.09-1.97,17.39-1.97,17.39s10.71-13.95,18.14-16.37  C177.4,345.95,171.57,337.02,171.57,337.02"></path>	<path class="st2" d="M152.34,367.83l-1.78-1.2c-0.34-0.23-2.08-1.57-2.56-4.98c-0.55-3.89,0.72-9.04,3.77-15.29  c7.65-15.72,20.42-11.53,20.54-11.48l0.74,0.25l0.43,0.65c0.38,0.59,3.69,5.86,2.13,10.3c-0.52,1.47-1.79,3.44-4.92,4.46  c-5.54,1.8-14.17,11.86-17.03,15.59L152.34,367.83z M168.26,338.83c-3.12,0-8.44,1.37-12.4,9.51c-2.96,6.08-3.53,9.82-3.42,11.98  c9.53-11.49,16.06-13.87,16.82-14.12c1.47-0.48,1.87-1.16,2.04-1.64c0.58-1.63-0.47-4.16-1.22-5.57  C169.64,338.91,169.01,338.83,168.26,338.83"></path>	<path class="st4" d="M190.33,337.69c0,0-9.47,0.96-9.72,13.9c-0.25,12.93,4.56,13.71,4.56,13.71s3.18-14.17,7.9-18.56  C197.8,342.36,190.33,337.69,190.33,337.69"></path>	<path class="st2" d="M186.92,367.89l-2.12-0.34c-1.13-0.18-6.74-1.81-6.47-16.01c0.23-11.83,7.79-15.72,11.76-16.12l0.78-0.08  l0.66,0.41c0.51,0.32,4.97,3.21,5.35,7.28c0.13,1.37-0.16,3.42-2.26,5.38c-3.44,3.2-6.39,13.64-7.23,17.39L186.92,367.89z   M189.83,340.13c-0.73,0.21-1.89,0.67-3.03,1.6c-2.5,2.04-3.82,5.37-3.9,9.91c-0.09,4.42,0.46,7.27,1.13,9.02  c1.37-4.79,3.97-12.29,7.51-15.58c0.9-0.84,0.85-1.39,0.83-1.6C192.25,342.32,190.88,340.95,189.83,340.13"></path>	<path class="st2" d="M244.92,331.49c3.07,3.42,3.69,8.68,2.35,13c-0.6,2.27-1.43,4.56-3.06,6.24c-0.83,0.79-1.75,1.51-2.72,2.12  c-1.03,0.54-2.1,1.01-3.3,1.26l-0.3-0.34c0.99-3.1,2.45-5.69,4.34-8.2c0.91-1.06,1.76-2.36,2.22-3.67  c1.32-3.22,1.47-6.83,0.1-10.13L244.92,331.49"></path>	<path class="st4" d="M211.97,335.08c0,0-9.33,1.88-8.33,14.77c1,12.9,5.86,13.21,5.86,13.21s1.8-14.41,6.07-19.23  C219.85,339,211.97,335.08,211.97,335.08"></path>	<path class="st2" d="M211.5,365.47l-2.14-0.14c-1.14-0.07-6.89-1.15-7.99-15.31c-0.92-11.79,6.24-16.4,10.15-17.18l0.76-0.15  l0.7,0.35c0.54,0.27,5.25,2.72,6.03,6.73c0.26,1.35,0.18,3.42-1.74,5.57c-3.12,3.52-5.04,14.19-5.52,18L211.5,365.47z   M211.71,337.55c-0.71,0.28-1.82,0.85-2.86,1.88c-2.29,2.27-3.28,5.72-2.93,10.24c0.34,4.41,1.16,7.19,1.99,8.87  c0.9-4.9,2.76-12.62,5.96-16.23c0.82-0.92,0.71-1.47,0.67-1.68C214.33,339.5,212.84,338.27,211.71,337.55"></path>	<path class="st4" d="M231.94,337.36c0,0-10.6,2.88-10.72,16.41c-0.13,13.53,5.26,13.39,5.26,13.39s3.4-15.4,8.64-20.91  C240.36,340.74,231.94,337.36,231.94,337.36"></path>	<path class="st2" d="M226.48,369.45c-0.45,0-2.14-0.12-3.83-1.78c-2.53-2.49-3.78-7.17-3.71-13.91c0.07-7.81,3.39-12.44,6.16-14.95  c2.98-2.7,5.92-3.55,6.24-3.64l0.74-0.2l0.71,0.28c0.54,0.22,5.33,2.25,6.2,6.23c0.32,1.49,0.21,3.8-2.21,6.35  c-3.94,4.14-7.16,15.72-8.07,19.83l-0.39,1.74l-1.78,0.05C226.52,369.45,226.51,369.45,226.48,369.45 M231.82,339.82  c-2.15,0.89-8.23,4.27-8.32,13.98c-0.05,5.17,0.74,8.07,1.58,9.59c1.35-5.01,4.3-14.4,8.4-18.7c0.83-0.88,1.19-1.63,1.06-2.23  C234.33,341.49,232.98,340.45,231.82,339.82"></path>	<g class="st2">		<defs>			<rect id="SVGID_3_" x="47.57" y="40.43" width="354.85" height="103.21"></rect>		</defs>		<clipPath id="SVGID_4_">			<use xlink:href="#SVGID_3_" style="overflow:visible;"></use>		</clipPath>		<g class="st7">			<defs>				<rect id="SVGID_5_" x="47.57" y="40.43" width="354.85" height="103.21"></rect>			</defs>			<clipPath id="SVGID_6_">				<use xlink:href="#SVGID_5_" style="overflow:visible;"></use>			</clipPath>			<polygon class="st8" points="399.12,78.82 402.42,87.62 397.91,97.26 389.34,93.24 387.85,96.43 386.76,97.64 379.68,94.33     385.28,82.36 393.86,86.37 397.24,79.15 397.9,77.73 399.32,78.39    "></polygon>			<polygon class="st9" points="397.24,79.14 393.86,86.37 385.28,82.36 379.68,94.33 386.76,97.64 383.38,104.87 376.29,101.56     369.56,115.94 377.07,119.46 378.13,119.95 374.78,127.1 359.05,119.74 381.52,71.79    "></polygon>			<polygon class="st8" points="388.65,97.32 391.95,106.12 387.44,115.76 380.35,112.44 377.73,118.04 377.07,119.46     369.56,115.94 376.29,101.56 383.38,104.87 386.76,97.65 387.85,96.43 388.84,96.89    "></polygon>			<polygon class="st8" points="356.97,120.5 380.76,69.71 397.9,77.73 397.23,79.15 381.51,71.79 359.05,119.74 374.78,127.1     378.13,119.95 377.07,119.46 377.73,118.04 380.21,119.2 380.01,119.62 383.31,128.43 378.84,137.99 360.71,129.5 357.39,120.69        "></polygon>			<polygon class="st9" points="359.92,63.52 344.39,105.81 352.17,108.66 352.39,108.75 349.66,116.16 334.25,110.49 352.51,60.79        "></polygon>			<polygon class="st8" points="354.24,108.25 358.28,116.75 354.65,126.65 336.73,120.07 332.68,111.59 332.24,111.43     332.78,109.96 334.25,110.49 349.66,116.16 352.39,108.75 352.17,108.66 352.71,107.2 354.39,107.81    "></polygon>			<polygon class="st8" points="351.58,58.78 361.93,62.58 361.77,63.02 365.82,71.51 352.71,107.2 352.17,108.66 344.39,105.81     359.92,63.52 352.51,60.79 334.25,110.49 332.78,109.96    "></polygon>			<polygon class="st8" points="332.14,53.72 336.89,61.84 326.84,98.5 326.42,100.01 318.43,97.82 330.34,54.36 330.75,52.86     332.27,53.27    "></polygon>			<polygon class="st9" points="330.34,54.36 318.43,97.82 326.42,100.01 326.65,100.08 324.56,107.69 308.72,103.35 322.73,52.28        "></polygon>			<polygon class="st8" points="328.45,99.43 333.2,107.55 330.41,117.73 312,112.68 307.25,104.56 306.8,104.44 321.63,50.35     330.75,52.86 330.34,54.36 322.73,52.28 308.72,103.35 324.57,107.69 326.65,100.08 326.42,100.01 326.84,98.5 328.57,98.97        "></polygon>							<rect x="273.13" y="70.58" transform="matrix(0.1943 -0.9809 0.9809 0.1943 168.2438 353.9713)" class="st9" width="52.95" height="7.97"></rect>			<path class="st8" d="M308.66,49.37l-7.82-1.55l-10.29,51.95l7.82,1.55L308.66,49.37z M310.41,48.59l5.32,7.75l-10.81,54.56    l-10.44-2.07l-5.32-7.75l-0.46-0.09l10.9-55.02l10.89,2.16L310.41,48.59z"></path>			<path class="st9" d="M286.22,45.53l-2.15,18.41c-0.68,5.85-1.87,11.6-3.58,17.22c-1.7,5.63-4.04,11.03-7,16.2l-7.85-0.91    c-1.7-5.71-2.73-11.51-3.1-17.38c-0.37-5.87-0.21-11.73,0.47-17.58l2.14-18.42l7.92,0.92c-0.33,2.91-0.75,5.99-1.23,9.27    c-0.49,3.27-0.89,6.59-1.2,9.94c-0.31,3.35-0.46,6.67-0.44,9.95c0.01,3.28,0.36,6.41,1.03,9.37c1.31-2.63,2.38-5.57,3.17-8.8    c0.8-3.24,1.44-6.54,1.91-9.9c0.46-3.36,0.84-6.7,1.12-10.02c0.28-3.33,0.58-6.39,0.91-9.19L286.22,45.53z"></path>			<path class="st8" d="M278.37,44.61c-0.33,2.8-0.63,5.86-0.91,9.19c-0.28,3.33-0.66,6.67-1.12,10.02    c-0.47,3.36-1.11,6.66-1.91,9.9c-0.8,3.24-1.86,6.17-3.18,8.8c-0.67-2.96-1.02-6.09-1.03-9.37c-0.02-3.28,0.13-6.6,0.44-9.95    c0.31-3.35,0.71-6.67,1.2-9.94c0.49-3.28,0.9-6.36,1.23-9.27l-7.92-0.92l0.18-1.55l9.52,1.1l-0.05,0.47l1.86,2.34l0.3-2.56    l1.58,0.18L278.37,44.61z"></path>			<path class="st8" d="M286.22,45.53l-7.85-0.92l0.18-1.55l9.42,1.09l-0.06,0.47l5.91,7.3l-2.3,19.74    c-0.7,6.01-1.94,11.92-3.71,17.72c-1.78,5.8-4.24,11.46-7.4,16.97l-9.71-1.13l-5.92-7.3l-0.39-0.05    c-1.87-6.1-2.99-12.2-3.39-18.31c-0.39-6.11-0.24-12.2,0.47-18.26l2.32-19.97l1.56,0.18l-0.18,1.55l-2.14,18.42    c-0.68,5.86-0.84,11.71-0.47,17.58c0.37,5.87,1.4,11.67,3.1,17.38l7.85,0.91c2.96-5.17,5.3-10.57,7-16.2    c1.71-5.63,2.9-11.37,3.58-17.22L286.22,45.53z"></path>			<polygon class="st8" points="251.58,41.37 258.16,48.1 257.91,58.73 248.45,58.51 248.37,62.03 247.86,63.58 240.04,63.4     240.35,50.19 249.81,50.41 250,42.43 232.63,42.03 232.67,40.47 251.6,40.91    "></polygon>			<polygon class="st9" points="250,42.43 249.81,50.41 240.35,50.19 240.04,63.4 247.86,63.58 247.68,71.57 239.86,71.38     239.48,87.26 247.78,87.45 248.95,87.48 248.77,95.37 231.4,94.97 232.63,42.03    "></polygon>			<polygon class="st8" points="249.45,62.53 256.03,69.25 255.77,79.89 247.96,79.71 247.82,85.88 247.78,87.45 239.48,87.26     239.86,71.38 247.68,71.57 247.86,63.58 248.37,62.03 249.46,62.06    "></polygon>			<polygon class="st8" points="231.4,94.97 248.77,95.37 248.95,87.48 247.78,87.45 247.82,85.88 250.55,85.95 250.54,86.41     257.11,93.14 256.87,103.7 236.85,103.23 230.27,96.51 229.8,96.5 231.11,40.43 232.67,40.47 232.63,42.03    "></polygon>			<path class="st9" d="M220.68,88.79c0.12,1.82-0.42,3.43-1.63,4.82c-1.21,1.39-2.73,2.14-4.55,2.27l-7.88,0.54    c-1.82,0.13-3.43-0.42-4.82-1.63c-1.39-1.22-2.14-2.73-2.27-4.55l-2.72-39.57c-0.13-1.82,0.42-3.42,1.63-4.82    c1.21-1.39,2.73-2.15,4.55-2.27l7.88-0.55c1.82-0.12,3.43,0.42,4.81,1.63c1.39,1.21,2.15,2.73,2.27,4.55L220.68,88.79z     M211.99,87.39c0.42-0.47,0.61-1.05,0.56-1.72l-2.22-32.23c-0.04-0.68-0.31-1.24-0.79-1.67c-0.49-0.44-1.07-0.63-1.76-0.58    l-0.55,0.04c-0.69,0.05-1.24,0.32-1.66,0.82c-0.42,0.5-0.6,1.09-0.55,1.76l2.22,32.23c0.04,0.67,0.31,1.22,0.79,1.63    c0.48,0.41,1.06,0.59,1.75,0.55l0.55-0.04C211.01,88.12,211.57,87.86,211.99,87.39"></path>			<path class="st8" d="M212.55,85.67c0.05,0.68-0.14,1.25-0.56,1.72c-0.42,0.47-0.97,0.73-1.66,0.78l-0.55,0.04    c-0.68,0.05-1.27-0.14-1.75-0.55c-0.48-0.41-0.74-0.96-0.79-1.63l-2.22-32.23c-0.05-0.68,0.14-1.26,0.55-1.76    c0.42-0.5,0.96-0.77,1.66-0.82l0.55-0.04c0.68-0.05,1.27,0.14,1.76,0.58c0.48,0.43,0.74,1,0.79,1.67L212.55,85.67z"></path>			<path class="st8" d="M199.72,42.91c0.96-0.51,2.01-0.8,3.16-0.88l7.88-0.54c1.5-0.11,2.89,0.17,4.17,0.8    c1.27,0.65,2.32,1.54,3.13,2.69l5.82,4.93c0.77,0.68,1.42,1.49,1.93,2.42c0.51,0.93,0.8,1.98,0.88,3.12l2.73,39.56    c0.07,1.09-0.07,2.13-0.42,3.13c-0.35,0.99-0.87,1.88-1.54,2.65c-0.68,0.78-1.48,1.41-2.42,1.89c-0.93,0.49-1.95,0.77-3.04,0.84    l-7.88,0.54c-2.19,0.15-4.09-0.48-5.7-1.88l-5.92-5.01c-1.25-0.59-2.29-1.5-3.13-2.72c-0.84-1.22-1.31-2.59-1.41-4.1l-2.73-39.57    c-0.08-1.14,0.05-2.23,0.4-3.24c0.35-1.01,0.87-1.91,1.58-2.7C197.94,44.07,198.76,43.43,199.72,42.91 M201.8,94.8    c1.39,1.21,3,1.75,4.82,1.63l7.88-0.54c1.82-0.13,3.34-0.88,4.55-2.27c1.21-1.39,1.75-3,1.63-4.82l-2.73-39.56    c-0.12-1.82-0.88-3.34-2.27-4.55c-1.39-1.21-2.99-1.76-4.82-1.63l-7.88,0.55c-1.82,0.12-3.33,0.88-4.55,2.27    c-1.21,1.39-1.75,2.99-1.63,4.82l2.72,39.57C199.66,92.07,200.41,93.58,201.8,94.8"></path>			<path class="st9" d="M182.33,80.41l7.35,18.03l-8.1,1.38l-7.12-17.6l-1,0.17l3.11,18.27l-7.78,1.33l-8.89-52.2l14.35-2.45    c1.8-0.3,3.45,0.08,4.95,1.14c1.5,1.07,2.41,2.5,2.72,4.3l3.55,20.82c0.23,1.34,0.05,2.63-0.53,3.9    C184.35,78.77,183.48,79.74,182.33,80.41 M176.56,73.07c0.38-0.55,0.52-1.12,0.42-1.74l-2.32-13.57    c-0.1-0.61-0.42-1.13-0.93-1.55c-0.52-0.41-1.12-0.56-1.78-0.45l-2.93,0.5l3.11,18.27l2.93-0.5    C175.67,73.94,176.17,73.61,176.56,73.07"></path>			<path class="st8" d="M176.98,71.33c0.1,0.62-0.04,1.19-0.42,1.74c-0.39,0.54-0.89,0.87-1.5,0.96l-2.93,0.5l-3.11-18.27l2.93-0.5    c0.67-0.11,1.26,0.04,1.79,0.45c0.52,0.42,0.83,0.93,0.93,1.55L176.98,71.33z"></path>			<path class="st8" d="M173.98,45.81c1.49-0.25,2.9-0.12,4.23,0.39c1.34,0.52,2.46,1.31,3.38,2.36l6.3,4.33    c0.84,0.59,1.56,1.33,2.16,2.21c0.6,0.87,1,1.88,1.19,3.01l3.54,20.82c0.26,1.49,0.15,2.89-0.31,4.21    c-0.46,1.33-1.28,2.43-2.45,3.32c1.19,2.97,2.47,6.1,3.82,9.39c1.36,3.29,2.62,6.34,3.78,9.15l-10.87,1.85l-3.06-2.1l0.43,2.54    l-10.4,1.77l-7.74-5.35l-0.46,0.08l-9.42-55.3L173.98,45.81z M179.19,48.49c-1.5-1.06-3.15-1.44-4.95-1.14L159.9,49.8l8.89,52.2    l7.78-1.33l-3.11-18.27l1-0.18l7.12,17.6l8.1-1.38l-7.35-18.03c1.15-0.67,2.02-1.64,2.6-2.9c0.58-1.26,0.76-2.56,0.53-3.9    l-3.55-20.82C181.6,50.99,180.7,49.56,179.19,48.49"></path>			<path class="st9" d="M144.42,53.58l14.16,51.03l-7.61,2.11c-0.33-1.15-0.64-2.44-0.96-3.87c-0.31-1.43-0.65-2.86-0.99-4.31    c-0.34-1.44-0.72-2.84-1.12-4.19c-0.4-1.35-0.85-2.54-1.36-3.6c-0.54-1.15-1.24-2.37-2.12-3.68c-0.87-1.3-1.81-2.6-2.79-3.93    c-0.99-1.32-1.98-2.62-2.99-3.88c-1-1.27-1.87-2.45-2.61-3.54l9.06,32.63l-7.62,2.11l-14.16-51.03l7.61-2.11l10.5,15.03    l-4.63-16.66L144.42,53.58z"></path>			<path class="st8" d="M136.83,112.26l-0.45,0.13l-15-54.04l10.18-2.83l0.32,0.56l4,2.13l-1-3.62l10.63-2.95l0.13,0.46l8.24,4.53    l14.87,53.59l-10.18,2.82l-4.22-2.32l0.9,3.24l-10.18,2.83L136.83,112.26z M137.47,110.46l7.62-2.11l-9.06-32.63    c0.74,1.09,1.6,2.27,2.6,3.54c1,1.26,2,2.56,2.99,3.88c0.99,1.32,1.92,2.63,2.79,3.93c0.87,1.31,1.58,2.53,2.12,3.67    c0.51,1.06,0.96,2.25,1.36,3.6c0.4,1.35,0.78,2.75,1.12,4.19c0.35,1.45,0.68,2.89,0.99,4.31c0.32,1.43,0.63,2.72,0.96,3.87    l7.61-2.11l-14.16-51.03l-7.62,2.11l4.63,16.66l-10.5-15.03l-7.61,2.11L137.47,110.46z"></path>			<path class="st9" d="M125.24,107.92c0.67,1.7,0.63,3.39-0.11,5.08c-0.74,1.69-1.96,2.87-3.66,3.53l-7.36,2.88    c-1.69,0.66-3.39,0.62-5.08-0.12c-1.69-0.74-2.86-1.96-3.53-3.65L91.07,78.69c-0.67-1.7-0.63-3.39,0.11-5.08    c0.74-1.69,1.96-2.86,3.66-3.53l7.36-2.87c1.7-0.67,3.4-0.63,5.08,0.11c1.69,0.74,2.86,1.96,3.53,3.66L125.24,107.92z     M116.52,109.18c0.26-0.58,0.27-1.18,0.01-1.81l-11.75-30.1c-0.25-0.63-0.67-1.09-1.25-1.36c-0.59-0.27-1.21-0.28-1.85-0.03    l-0.52,0.2c-0.64,0.26-1.09,0.68-1.33,1.28c-0.25,0.6-0.25,1.21-0.01,1.85l11.76,30.09c0.24,0.64,0.66,1.08,1.24,1.32    c0.58,0.25,1.19,0.25,1.84,0l0.52-0.2C115.82,110.18,116.27,109.76,116.52,109.18"></path>			<path class="st8" d="M116.54,107.37c0.25,0.63,0.24,1.23-0.02,1.81c-0.26,0.58-0.71,0.99-1.34,1.25l-0.52,0.2    c-0.64,0.25-1.25,0.25-1.84,0c-0.58-0.24-1-0.68-1.24-1.32L99.83,79.21c-0.24-0.63-0.24-1.25,0.01-1.85    c0.24-0.61,0.69-1.03,1.33-1.28l0.52-0.2c0.65-0.25,1.26-0.24,1.85,0.03c0.59,0.27,1,0.73,1.25,1.36L116.54,107.37z"></path>			<polygon class="st9" points="74.36,79.21 98.91,126.13 91.84,129.83 81.69,110.43 85.31,130.16 71.16,115.94 81.31,135.34     74.24,139.04 49.69,92.12 55.58,89.04 72.9,106.45 68.47,82.3    "></polygon>			<path class="st8" d="M109.02,119.29c1.69,0.74,3.39,0.78,5.08,0.12l7.36-2.88c1.7-0.66,2.92-1.84,3.66-3.53    c0.74-1.69,0.78-3.38,0.11-5.08l-14.42-36.94c-0.67-1.7-1.85-2.92-3.53-3.66c-1.69-0.74-3.38-0.78-5.08-0.11l-7.36,2.87    c-1.7,0.67-2.92,1.85-3.66,3.53c-0.75,1.69-0.78,3.38-0.11,5.08l14.42,36.95C106.16,117.33,107.33,118.55,109.02,119.29     M104.04,116.2L89.61,79.26c-0.42-1.06-0.62-2.14-0.58-3.21c0.03-1.08,0.26-2.09,0.7-3.05c0.44-0.96,1.04-1.82,1.8-2.59    c0.76-0.77,1.68-1.37,2.75-1.79l7.36-2.87c1.4-0.55,2.82-0.71,4.22-0.48c1.4,0.23,2.67,0.78,3.78,1.63l7.04,2.96    c0.94,0.42,1.8,0.99,2.56,1.73c0.77,0.74,1.36,1.64,1.78,2.7l14.43,36.95c0.39,1.02,0.58,2.05,0.54,3.11    c-0.04,1.05-0.27,2.04-0.68,2.99c-0.41,0.94-0.99,1.78-1.74,2.53c-0.74,0.74-1.63,1.31-2.65,1.7l-7.36,2.88    c-2.04,0.8-4.04,0.77-6-0.09l-7.13-3.01c-1.37-0.2-2.64-0.75-3.81-1.67C105.44,118.77,104.59,117.61,104.04,116.2"></path>			<polygon class="st8" points="75.23,77.51 84.24,80.22 110.03,129.5 100.61,134.42 96,133.04 96.7,136.91 90.51,135.03     92.43,138.71 83,143.64 74,140.93 73.58,141.15 48.3,92.85 49.69,92.12 74.24,139.04 81.31,135.34 71.16,115.94 85.31,130.16     81.69,110.43 91.84,129.83 98.91,126.13 74.36,79.21 68.47,82.3 66.98,82.56 66.97,82.56 66.77,81.42 75.02,77.1    "></polygon>			<path class="st8" d="M56.22,87.56l8.9,2.67L69,94.11c-0.08-0.36-0.14-0.71-0.19-1.04c-0.05-0.33-0.11-0.65-0.16-0.98l-1.67-9.52    l1.49-0.27l4.43,24.16L55.58,89.04l-5.89,3.08l-1.38,0.73l-0.73-1.39l8.25-4.32L56.22,87.56z"></path>		</g>	</g></g></svg>