<svg xmlns="http://www.w3.org/2000/svg" width="24" height="30" viewBox="0 0 24 30" fill="none"><path d="M11.7484 15.0059C11.4471 14.0684 11.4531 12.2578 11.6279 12.2578C12.1341 12.2578 12.0859 14.4199 11.7484 15.0059ZM11.646 17.7715C11.1819 18.9551 10.6033 20.3086 9.93437 21.4453C11.0373 21.0352 12.2848 20.4375 13.7252 20.1621C12.9598 19.5996 12.2245 18.791 11.646 17.7715ZM5.97477 25.084C5.97477 25.1309 6.7703 24.7676 8.07812 22.7285C7.67432 23.0977 6.32432 24.1641 5.97477 25.084ZM15.7321 9.375H23.9286V28.5938C23.9286 29.373 23.2837 30 22.4821 30H2.23213C1.43057 30 0.785706 29.373 0.785706 28.5938V1.40625C0.785706 0.626953 1.43057 0 2.23213 0H14.2857V7.96875C14.2857 8.74219 14.9366 9.375 15.7321 9.375ZM15.25 19.4414C14.0446 18.7266 13.2431 17.7422 12.6766 16.2891C12.9478 15.2051 13.3757 13.5586 13.0502 12.5273C12.767 10.8047 10.4949 10.9746 10.1694 12.1289C9.86807 13.2012 10.1453 14.7129 10.6576 16.6406C9.95847 18.2578 8.92789 20.4258 8.19865 21.668C8.19262 21.668 8.19262 21.6738 8.1866 21.6738C6.55334 22.4883 3.75088 24.2812 4.902 25.6582C5.2395 26.0625 5.86629 26.2441 6.19776 26.2441C7.27655 26.2441 8.34932 25.1895 9.88012 22.623C11.435 22.125 13.1406 21.5039 14.6413 21.2637C15.9491 21.9551 17.4799 22.4062 18.4984 22.4062C20.2582 22.4062 20.3788 20.5312 19.6857 19.8633C18.848 19.0664 16.4132 19.2949 15.25 19.4414ZM23.5067 6.15234L17.6004 0.410156C17.3292 0.146484 16.9616 0 16.5759 0H16.2143V7.5H23.9286V7.14258C23.9286 6.77344 23.7779 6.41602 23.5067 6.15234ZM19.0408 21.1113C19.2879 20.9531 18.8902 20.4141 16.4614 20.584C18.6973 21.5098 19.0408 21.1113 19.0408 21.1113Z" fill="#FAFAFA"></path></svg>